<svg width="67" height="61" viewBox="0 0 67 61" fill="none" xmlns="http://www.w3.org/2000/svg">
<path d="M32.994 2.15622C47.3016 2.15622 59.2771 12.8673 60.848 27.0712L60.8659 27.2327C60.9581 28.0663 61.9738 28.4228 62.5669 27.8298L65.3008 25.0962C65.6913 24.7057 65.6914 24.0725 65.3008 23.682L65.1065 23.4876C64.7624 23.1435 64.2044 23.1434 63.8601 23.4874C63.3577 23.9893 62.4911 23.7215 62.3243 23.0312C59.0955 9.66434 47.0967 0 32.994 0C32.5826 0 32.1691 0.00816605 31.7574 0.0244982C31.2055 0.0463957 30.7915 0.527225 30.8318 1.07814L30.8432 1.23356C30.8835 1.78461 31.3631 2.19684 31.9152 2.17624C32.2743 2.16285 32.6347 2.15622 32.994 2.15622Z" fill="white"/>
<path d="M32.9939 8.625C21.1046 8.625 11.4316 18.298 11.4316 30.1872C11.4316 42.0765 21.1046 51.7495 32.9939 51.7495C44.8831 51.7495 54.5561 42.0765 54.5561 30.1872C54.5561 18.298 44.8831 8.625 32.9939 8.625ZM35.1257 49.451C34.5552 49.5137 34.072 49.0551 34.072 48.4811V45.2027C34.072 44.6504 33.6243 44.2027 33.072 44.2027H32.9158C32.3635 44.2027 31.9158 44.6504 31.9158 45.2027V48.4811C31.9158 49.0551 31.4326 49.5137 30.862 49.451C21.8675 48.462 14.7191 41.3136 13.7297 32.3191C13.6669 31.7485 14.1255 31.2653 14.6995 31.2653H17.9784C18.5307 31.2653 18.9784 30.8176 18.9784 30.2653V30.1091C18.9784 29.5568 18.5307 29.1091 17.9784 29.1091H14.6995C14.1255 29.1091 13.6669 28.6259 13.7297 28.0553C14.7191 19.0609 21.8675 11.9125 30.862 10.923C31.4325 10.8602 31.9158 11.3189 31.9158 11.8929V15.1718C31.9158 15.7241 32.3635 16.1718 32.9158 16.1718H33.072C33.6243 16.1718 34.072 15.7241 34.072 15.1718V11.8929C34.072 11.3189 34.5552 10.8602 35.1258 10.923C44.1203 11.9125 51.2686 19.0609 52.2576 28.0554C52.3204 28.6259 51.8617 29.1091 51.2877 29.1091H48.0093C47.457 29.1091 47.0093 29.5568 47.0093 30.1091V30.2653C47.0093 30.8176 47.457 31.2653 48.0093 31.2653H51.2877C51.8617 31.2653 52.3204 31.7485 52.2576 32.3191C51.2686 41.3136 44.1202 48.462 35.1257 49.451Z" fill="white"/>
<path d="M34.7057 27.4584C34.3475 27.2334 34.0722 26.8688 34.0722 26.4459V19.3279C34.0722 18.7756 33.6245 18.3279 33.0722 18.3279H32.916C32.3637 18.3279 31.916 18.7756 31.916 19.3279V26.4462C31.916 26.8689 31.641 27.2337 31.2824 27.4577C30.3703 28.0275 29.7598 29.0336 29.7598 30.1871C29.7598 31.9701 31.2106 33.4214 32.9941 33.4214C34.1472 33.4214 35.1536 32.8109 35.7235 31.8987C35.9475 31.5402 36.3123 31.2652 36.7351 31.2652H39.5409C40.0932 31.2652 40.5409 30.8175 40.5409 30.2652V30.109C40.5409 29.5567 40.0932 29.109 39.5409 29.109H36.7353C36.3124 29.109 35.9478 28.8337 35.7228 28.4755C35.4647 28.0644 35.1168 27.7166 34.7057 27.4584ZM32.9941 31.2652C32.3987 31.2652 31.916 30.7809 31.916 30.1871C31.916 29.5928 32.3987 29.109 32.9941 29.109C33.589 29.109 34.0722 29.5928 34.0722 30.1871C34.0722 30.7809 33.589 31.2652 32.9941 31.2652Z" fill="white"/>
<path d="M26.2575 1.84838C26.1412 1.26476 26.52 0.696988 27.1036 0.580701C27.6873 0.464402 28.2548 0.843723 28.371 1.42741C28.4873 2.01111 28.1083 2.57893 27.5246 2.69509C26.941 2.81123 26.3737 2.43195 26.2575 1.84838Z" fill="white"/>
<path d="M20.8588 3.70582C20.631 3.15567 20.8923 2.52501 21.4425 2.29724C21.9927 2.06945 22.6234 2.33091 22.851 2.88118C23.0787 3.43132 22.8172 4.06182 22.2671 4.28949C21.717 4.51713 21.0866 4.25583 20.8588 3.70582Z" fill="white"/>
<path d="M15.9256 6.58197C15.5951 6.08677 15.7285 5.41739 16.2237 5.0868C16.7188 4.75623 17.3882 4.88956 17.7188 5.38463C18.0496 5.87981 17.9162 6.54937 17.421 6.88006C16.9258 7.21076 16.2562 7.07729 15.9256 6.58197Z" fill="white"/>
<path d="M11.648 10.3664C11.227 9.94538 11.227 9.26283 11.648 8.84185C12.069 8.42086 12.7515 8.42086 13.1725 8.84185C13.5935 9.26283 13.5935 9.94538 13.1725 10.3664C12.7515 10.7873 12.069 10.7873 11.648 10.3664Z" fill="white"/>
<path d="M8.19047 14.9116C7.69544 14.5808 7.56219 13.9112 7.89305 13.4162C8.22389 12.9212 8.89346 12.7883 9.3884 13.1191C9.88328 13.4499 10.0165 14.1193 9.68582 14.6143C9.35507 15.1093 8.68548 15.2424 8.19047 14.9116Z" fill="white"/>
<path d="M5.6874 20.0431C5.13733 19.8152 4.87618 19.1845 5.10412 18.6344C5.33206 18.0843 5.96275 17.8232 6.51282 18.0511C7.06289 18.2791 7.32404 18.9098 7.0961 19.4598C6.86816 20.0099 6.23747 20.2711 5.6874 20.0431Z" fill="white"/>
<path d="M4.23424 25.5649C3.65022 25.4488 3.27093 24.8812 3.38709 24.2972C3.50323 23.7133 4.07066 23.334 4.65458 23.45C5.23859 23.566 5.61798 24.1335 5.50199 24.7175C5.38598 25.3016 4.81834 25.6811 4.23424 25.5649Z" fill="white"/>
<path d="M37.6159 58.9429C37.4996 58.3592 37.8785 57.7913 38.4622 57.6751C39.0458 57.559 39.6132 57.9384 39.7294 58.522C39.8456 59.1057 39.4668 59.6737 38.883 59.7898C38.2995 59.906 37.7321 59.5265 37.6159 58.9429Z" fill="white"/>
<path d="M43.1391 57.4927C42.9113 56.9425 43.1727 56.3117 43.7229 56.084C44.2731 55.8564 44.9037 56.118 45.1313 56.6682C45.3589 57.2183 45.0975 57.8489 44.5474 58.0766C43.9974 58.3042 43.3668 58.0427 43.1391 57.4927Z" fill="white"/>
<path d="M48.2726 54.9892C47.9419 54.4939 48.0758 53.824 48.5711 53.4934C49.0664 53.1627 49.7364 53.2959 50.0671 53.7912C50.3976 54.2864 50.2637 54.9561 49.7686 55.2868C49.2734 55.6175 48.6033 55.4844 48.2726 54.9892Z" fill="white"/>
<path d="M52.814 51.5324C52.393 51.1114 52.393 50.4288 52.814 50.0079C53.235 49.5869 53.9175 49.5869 54.3385 50.0079C54.7595 50.4288 54.7595 51.1114 54.3385 51.5324C53.9175 51.9534 53.235 51.9534 52.814 51.5324Z" fill="white"/>
<path d="M56.6028 47.2571C56.1075 46.9264 55.9744 46.2565 56.3051 45.7613C56.6358 45.2661 57.3056 45.1324 57.8008 45.4632C58.2959 45.7938 58.429 46.4635 58.0985 46.9587C57.7679 47.454 57.098 47.5878 56.6028 47.2571Z" fill="white"/>
<path d="M59.4753 42.3236C58.9253 42.0958 58.664 41.4653 58.8917 40.9152C59.1193 40.3651 59.7498 40.1037 60.3 40.3313C60.8502 40.559 61.1117 41.1897 60.8839 41.7399C60.6561 42.29 60.0255 42.5514 59.4753 42.3236Z" fill="white"/>
<path d="M61.3328 36.9274C60.7491 36.8112 60.3697 36.2437 60.486 35.66C60.6023 35.0764 61.1701 34.6976 61.7537 34.8138C62.3374 34.9301 62.7169 35.4976 62.6006 36.0813C62.4843 36.6649 61.9164 37.0437 61.3328 36.9274Z" fill="white"/>
<path d="M32.8233 58.1949C18.6047 58.1003 6.77443 47.3767 5.3073 33.2507L5.29194 33.1029C5.20522 32.2688 4.19195 31.9055 3.59495 32.4945L0.873554 35.1796C0.480404 35.5676 0.476174 36.2007 0.864104 36.5939L1.05158 36.7839C1.39131 37.1281 1.94576 37.1319 2.29019 36.7924C2.7928 36.2968 3.65227 36.5687 3.81342 37.2559C6.93374 50.5609 18.794 60.2445 32.809 60.3378C33.2158 60.3405 33.6246 60.3352 34.0318 60.3218C34.5839 60.3037 35.0011 59.8256 34.9644 59.2744L34.955 59.1323C34.9183 58.581 34.4415 58.1656 33.8892 58.1824C33.5344 58.1932 33.1782 58.1973 32.8233 58.1949Z" fill="white"/>
</svg>
