<svg width="52" height="70" viewBox="0 0 52 70" fill="none" xmlns="http://www.w3.org/2000/svg">
<path d="M15.6666 68.8331L6.11141 30.4998L4.86508 25.4998L4.36655 23.4998L3.36949 19.4998L1.5 11.9998" stroke="white" stroke-width="2" stroke-linecap="round" stroke-linejoin="round"/>
<path d="M13.333 39.6747C14.0303 40.1976 15.6965 40.5565 18.4998 40.0788M50.6663 29.2158C45.5673 28.9238 39.8869 29.886 34.333 33.258C30.7251 35.4486 27.6271 37.0076 24.9998 38.0922M21.4998 39.3551C21.6639 39.3053 21.8305 39.2533 21.9998 39.199" stroke="white" stroke-width="2" stroke-linecap="round"/>
<path d="M6.33301 11.6747C7.85513 12.8163 13.9944 13.1759 26.4998 5.75813M43.6663 1.21579C40.2966 1.02284 36.673 1.37762 32.9998 2.61367M29.9998 3.82259L29.4998 4.07072" stroke="white" stroke-width="2" stroke-linecap="round" stroke-linejoin="round"/>
<path d="M6.33301 11.6665L13.333 39.6665" stroke="white" stroke-width="2" stroke-linecap="round" stroke-linejoin="round"/>
<path d="M43.667 1.1665L50.667 29.1665" stroke="white" stroke-width="2" stroke-linecap="round" stroke-linejoin="round"/>
</svg>
