<svg width="73" height="58" viewBox="0 0 73 58" fill="none" xmlns="http://www.w3.org/2000/svg">
<path d="M36.3256 38.8167C38.831 38.8167 40.8621 36.7856 40.8621 34.2802C40.8621 31.7747 38.831 29.7437 36.3256 29.7437C33.8201 29.7437 31.7891 31.7747 31.7891 34.2802C31.7891 36.7856 33.8201 38.8167 36.3256 38.8167Z" stroke="white" stroke-width="2"/>
<path d="M9.20669 16.931L12.3041 7.65604L13.1222 5.0903C14.4236 2.63612 16.9894 1 19.9269 1C24.166 1 27.6241 4.45817 27.6241 8.69721C27.6241 9.9243 27.3267 11.077 26.8061 12.1182C27.8101 13.1965 28.8141 14.4236 29.7437 15.8738C31.1939 13.7171 33.648 12.2669 36.4369 12.2669C39.2257 12.2669 41.6799 13.7171 43.1301 15.8738C43.9854 14.5724 44.8778 13.3825 45.8074 12.3785C45.2124 11.3001 44.8778 10.0359 44.8778 8.69721C44.8778 4.45817 48.3359 1 52.575 1C55.3638 1 57.818 2.48738 59.1567 4.71846L60.235 7.9907L70.2005 38.073C68.081 33.834 63.656 30.9336 58.5989 30.9336C52.166 30.9336 46.8486 35.5445 45.7702 41.6427C39.7091 46.9229 33.3878 46.9229 26.8805 41.6427C25.7649 35.5445 20.4475 30.9336 14.0518 30.9336C8.99468 30.9336 4.6069 33.7968 2.4502 37.9986L6.47 25.6207M7.72422 21.7586L8.03778 20.7931" stroke="white" stroke-width="2" stroke-linecap="round" stroke-linejoin="round"/>
<path d="M61.4617 11.5977C55.1775 5.16479 49.4882 6.46625 43.2412 15.688" stroke="white" stroke-width="2" stroke-linecap="round" stroke-linejoin="round"/>
<path d="M11.4121 11.5977C17.6591 5.16479 23.3855 6.46625 29.5954 15.688" stroke="white" stroke-width="2" stroke-linecap="round" stroke-linejoin="round"/>
<path d="M14.0518 57.0001C21.2601 57.0001 27.1036 51.1566 27.1036 43.9483C27.1036 36.74 21.2601 30.8965 14.0518 30.8965C6.84348 30.8965 1 36.74 1 43.9483C1 51.1566 6.84348 57.0001 14.0518 57.0001Z" stroke="white" stroke-width="2"/>
<path d="M6.35449 42.6095C6.76352 40.3413 8.13935 38.3705 10.1473 37.2178" stroke="white" stroke-width="2" stroke-linecap="round" stroke-linejoin="round"/>
<path d="M6.72604 46.6255C6.65167 46.4024 6.5773 46.2165 6.50293 45.9934" stroke="white" stroke-width="2" stroke-linecap="round" stroke-linejoin="round"/>
<path d="M63.5343 56.0345C62.0117 56.657 60.3453 57.0001 58.5987 57.0001C51.3904 57.0001 45.5469 51.1566 45.5469 43.9483C45.5469 36.74 51.3904 30.8965 58.5987 30.8965C65.807 30.8965 71.6504 36.74 71.6504 43.9483C71.6504 46.6347 70.8388 49.1315 69.4474 51.207M66.1723 54.5792C66.5062 54.3409 66.8284 54.0872 67.1378 53.8193" stroke="white" stroke-width="2" stroke-linecap="round" stroke-linejoin="round"/>
<path d="M50.9023 42.6095C51.2742 40.3413 52.6872 38.3705 54.658 37.2178" stroke="white" stroke-width="2" stroke-linecap="round" stroke-linejoin="round"/>
<path d="M51.2357 46.6255C51.1614 46.4024 51.087 46.2165 51.0498 45.9934" stroke="white" stroke-width="2" stroke-linecap="round" stroke-linejoin="round"/>
<path d="M29.8549 15.502L28.665 23.3479" stroke="white" stroke-width="2" stroke-linecap="round" stroke-linejoin="round"/>
<path d="M42.833 15.502L43.5023 20.0757" stroke="white" stroke-width="2" stroke-linecap="round" stroke-linejoin="round"/>
</svg>
