<svg width="77" height="76" viewBox="0 0 77 76" fill="none" xmlns="http://www.w3.org/2000/svg">
<path d="M35.6157 41.353C32.2432 41.4305 29.4522 38.7946 29.3747 35.4221C29.2972 32.0884 31.9719 29.2975 35.3443 29.2199C38.7168 29.1424 41.5077 31.7783 41.5853 35.1508" stroke="white" stroke-width="2" stroke-linecap="round" stroke-linejoin="round"/>
<path d="M4.5 29L5 29.5M2.5 27L1 25.6537L10.1095 16.583C6.81456 16.428 4.21739 13.792 4.21739 10.4971C4.21739 7.16344 6.96962 4.44997 10.3421 4.44997C13.637 4.44997 16.3117 7.00838 16.4667 10.2258L25.6925 1L35.1121 10.4196C31.8559 10.5359 29.2588 13.2106 29.2588 16.4667C29.2588 19.8392 32.011 22.5526 35.3834 22.5526C38.6396 22.5526 41.3143 19.9942 41.4694 16.7768L60.076 35.3834C58.2541 35.5385 56.5097 36.5076 55.4631 38.1744C53.6799 41.043 54.5327 44.803 57.4013 46.5862C60.2698 48.3693 64.0299 47.5165 65.813 44.6867C66.3557 43.8339 66.627 42.9424 66.7046 42.012L75.0388 50.3075L65.8905 59.4557C66.7046 59.572 67.5186 59.8821 68.2551 60.3473C71.0849 62.1304 71.9764 65.8905 70.1933 68.7203C68.4102 71.55 64.6501 72.4028 61.7816 70.6197C60.231 69.6118 59.2619 68.0613 58.9906 66.3557L50.3463 75L41.9733 66.627C43.8727 66.5107 45.6946 65.5416 46.78 63.7973C48.5631 60.9675 47.6716 57.2074 44.803 55.4243C41.9345 53.6412 38.1744 54.4552 36.3913 57.3237C35.8486 58.1765 35.5385 59.1456 35.4997 60.1147L16.9707 41.6244C16.8931 42.5547 16.6218 43.5238 16.0791 44.3766C14.296 47.2452 10.5359 48.0592 7.66737 46.2761C4.79885 44.4929 3.94604 40.7328 5.72918 37.9031C6.7758 36.1975 8.55893 35.1896 10.4196 35.0733L7 31.5" stroke="white" stroke-width="2" stroke-linecap="round" stroke-linejoin="round"/>
<path d="M26.1191 50.8501L35.6163 41.353" stroke="white" stroke-width="2" stroke-linecap="round" stroke-linejoin="round"/>
<path d="M49 28L50 27" stroke="white" stroke-width="2" stroke-linecap="round" stroke-linejoin="round"/>
<path d="M41.8574 35.151L43.5243 33.4841" stroke="white" stroke-width="2" stroke-linecap="round" stroke-linejoin="round"/>
<path d="M46 31.3876L46.3876 31" stroke="white" stroke-width="2" stroke-linecap="round" stroke-linejoin="round"/>
</svg>
