<svg width="65" height="62" viewBox="0 0 65 62" fill="none" xmlns="http://www.w3.org/2000/svg">
<path d="M30.7627 8.04374C30.5065 8.53297 30.6953 9.13731 31.1846 9.39357C31.6738 9.64984 32.2781 9.46098 32.5344 8.97175L30.7627 8.04374ZM40.1291 1.29923L40.7693 0.531006L40.1291 1.29923ZM21.6044 51.1067C21.7127 50.5652 21.3615 50.0383 20.8199 49.93C20.2784 49.8217 19.7515 50.1729 19.6432 50.7145L21.6044 51.1067ZM32.5344 8.97175C33.261 7.58469 34.8084 5.44166 36.4097 3.86747C37.2148 3.07598 37.9717 2.4903 38.5922 2.19628C39.2367 1.89086 39.4338 2.02151 39.4889 2.06745L40.7693 0.531006C39.8067 -0.27111 38.6292 -0.0344489 37.7357 0.388934C36.8182 0.82372 35.8738 1.58964 35.0075 2.44126C33.2661 4.15331 31.591 6.46259 30.7627 8.04374L32.5344 8.97175ZM39.4889 2.06745C39.8889 2.40078 40.3985 3.16711 40.7587 4.70717C41.1146 6.22908 41.3005 8.40757 41.1445 11.4243C40.8324 17.457 39.1613 26.6974 34.9329 40.4398L36.8445 41.028C41.0966 27.2085 42.8178 17.7917 43.1418 11.5276C43.3038 8.39586 43.1187 6.01603 42.7061 4.25172C42.2978 2.50556 41.6413 1.25775 40.7693 0.531006L39.4889 2.06745ZM34.9329 40.4398C32.8275 47.2825 30.6854 52.0699 28.7203 55.2101C26.7185 58.4091 25.024 59.7013 23.9033 59.9525C23.3985 60.0656 23.0104 59.9709 22.6825 59.7356C22.3263 59.4801 21.9644 59 21.6835 58.2229C21.1188 56.6616 20.9884 54.1866 21.6044 51.1067L19.6432 50.7145C18.9871 53.995 19.0687 56.8735 19.8026 58.9031C20.1709 59.9216 20.73 60.7963 21.5167 61.3607C22.3316 61.9453 23.3084 62.1355 24.3407 61.9041C26.2941 61.4662 28.3628 59.5517 30.4157 56.271C32.5055 52.9315 34.7096 47.9663 36.8445 41.028L34.9329 40.4398Z" fill="white"/>
<path d="M12.5265 21.3798C13.0783 21.4023 13.5439 20.9732 13.5664 20.4214C13.5889 19.8696 13.1598 19.404 12.608 19.3815L12.5265 21.3798ZM5.78278 29.2852L6.35457 28.4648L5.78278 29.2852ZM61.7545 41.5821L62.3211 42.4061L61.7545 41.5821ZM55.7359 30.4656C55.2168 30.2768 54.6431 30.5446 54.4543 31.0636C54.2656 31.5827 54.5333 32.1564 55.0524 32.3452L55.7359 30.4656ZM20.5779 37.5547C21.0949 37.7488 21.6714 37.487 21.8656 36.97C22.0597 36.4529 21.7979 35.8764 21.2808 35.6823L20.5779 37.5547ZM24.6236 36.6766C24.0971 36.5098 23.5351 36.8014 23.3683 37.3279C23.2015 37.8544 23.4931 38.4164 24.0196 38.5832L24.6236 36.6766ZM24.8745 38.8506C25.4022 39.0136 25.9621 38.718 26.1251 38.1903C26.2881 37.6627 25.9925 37.1027 25.4648 36.9397L24.8745 38.8506ZM28.8274 38.1986C28.2949 38.0519 27.7444 38.3647 27.5978 38.8972C27.4511 39.4296 27.7639 39.9802 28.2964 40.1268L28.8274 38.1986ZM12.608 19.3815C10.8381 19.3092 8.79509 19.3428 6.89638 19.5622C5.02806 19.778 3.17838 20.1861 1.88027 20.9349C1.22249 21.3144 0.625726 21.8272 0.284951 22.5265C-0.0709343 23.2568 -0.0877639 24.0674 0.202881 24.8942C0.746553 26.4409 2.39865 28.1455 5.21099 30.1056L6.35457 28.4648C3.56973 26.5239 2.40557 25.1296 2.0897 24.231C1.95058 23.8352 1.99316 23.5867 2.08283 23.4026C2.18762 23.1876 2.42257 22.931 2.87963 22.6673C3.8112 22.13 5.32372 21.7571 7.1259 21.5489C8.89769 21.3443 10.8335 21.3107 12.5265 21.3798L12.608 19.3815ZM62.3211 42.4061C63.8417 41.3607 64.674 40.1022 64.7061 38.6789C64.737 37.3128 64.0187 36.0762 63.1008 35.0601C61.2624 33.0252 58.146 31.342 55.7359 30.4656L55.0524 32.3452C57.3065 33.1649 60.0841 34.7043 61.6167 36.4008C62.3843 37.2505 62.7208 38.0068 62.7067 38.6337C62.6938 39.2033 62.3812 39.9377 61.188 40.758L62.3211 42.4061ZM5.21099 30.1056C8.66812 32.5152 15.4522 35.6304 20.5779 37.5547L21.2808 35.6823C16.198 33.7741 9.60256 30.7286 6.35457 28.4648L5.21099 30.1056ZM24.0196 38.5832C24.3038 38.6732 24.5888 38.7624 24.8745 38.8506L25.4648 36.9397C25.1836 36.8529 24.9032 36.7652 24.6236 36.6766L24.0196 38.5832ZM28.2964 40.1268C35.3434 42.0676 42.6722 43.3948 48.7773 43.8785C51.8283 44.1203 54.5983 44.1534 56.887 43.939C59.136 43.7283 61.0687 43.2671 62.3211 42.4061L61.188 40.758C60.376 41.3163 58.8763 41.7439 56.7005 41.9477C54.5645 42.1478 51.9175 42.1211 48.9353 41.8848C42.9737 41.4124 35.7705 40.1107 28.8274 38.1986L28.2964 40.1268Z" fill="white"/>
<path d="M41.7067 53.5154C41.9922 53.3974 42.275 53.2738 42.5547 53.1448M38.3144 54.6205C36.5471 55.0488 34.7011 55.2757 32.8021 55.2757C19.9219 55.2757 9.48047 44.8343 9.48047 31.9542C9.48047 19.074 19.9219 8.63257 32.8021 8.63257C45.6822 8.63257 56.1236 19.074 56.1236 31.9542C56.1236 40.112 51.9351 47.2915 45.5912 51.4595" stroke="white" stroke-width="2" stroke-linecap="round"/>
<path fill-rule="evenodd" clip-rule="evenodd" d="M38.3396 22.8669C38.1976 24.1093 37.2747 25.1032 36.0323 25.3517C34.7189 25.6002 33.4765 25.0677 32.802 23.9318L31.7726 22.2634C31.0272 23.8963 29.7848 26.8426 29.5008 29.1499C29.4653 29.5048 29.5363 29.8598 29.7138 30.1793L30.9917 32.7351C31.2757 33.303 31.6661 33.7645 32.1986 34.084C33.3345 34.7939 34.8964 35.9298 35.9613 37.2432C36.8487 38.2726 38.0556 38.8761 39.298 38.8761C39.653 38.8761 40.008 39.0536 40.2564 39.302C40.5049 39.5505 40.6114 39.9055 40.6114 40.2605C40.3984 43.2422 40.7534 45.798 41.4633 46.5434C41.6763 46.7919 41.7828 46.6854 41.9603 46.7209C41.9958 46.7209 43.2382 46.9339 44.3386 45.9755C45.5455 44.9816 46.1844 42.8872 46.1844 40.012C46.1844 39.9055 46.1844 39.8345 46.2199 39.7635L48.0658 31.4217C48.2433 30.6763 48.8112 30.1438 49.5567 30.0018C50.2666 29.8953 51.0121 30.2503 51.367 30.8537L52.5384 32.8061C52.7159 33.0901 52.9999 33.2675 53.3194 33.3385C53.6388 33.4095 53.9583 33.3385 54.2423 33.1255L56.2301 31.6347C56.0526 24.9612 53.0354 18.7137 48.0658 14.4541C47.0364 13.5312 45.9005 12.7502 44.7291 12.0403C45.2615 14.2766 45.5455 17.3648 43.4157 18.6427L43.2737 18.7137L40.5759 19.8141C39.369 20.2756 38.5171 21.376 38.3751 22.6894L38.3396 22.8669Z" fill="white"/>
<path fill-rule="evenodd" clip-rule="evenodd" d="M15.4442 25.7067C15.0537 24.4643 15.3732 23.1509 16.2606 22.228L19.4908 19.0333C20.1653 18.3588 20.5558 17.4359 20.5558 16.4775V15.0576C20.5558 14.2057 20.3428 13.3892 19.9168 12.6438C14.7342 16.087 10.9715 21.5181 9.80014 27.8365C9.69365 28.298 9.62266 28.724 9.58716 29.1854L14.8052 27.1266C15.3732 26.8781 15.6572 26.2747 15.4442 25.7067Z" fill="white"/>
<path fill-rule="evenodd" clip-rule="evenodd" d="M16.0831 38.4502C16.0831 38.1662 15.9412 37.8822 15.6927 37.7047C15.4442 37.5272 15.1247 37.4917 14.8408 37.5982L10.4746 39.2666C12.9239 46.9695 19.2779 53.004 27.2292 54.9563L27.3357 54.5303C27.8682 52.649 27.3357 50.6257 25.9868 49.2413L25.3124 48.5668C24.6734 47.9634 23.9635 47.4664 23.1471 47.1114L19.7039 45.6561C17.503 44.6976 16.0831 42.5323 16.0831 40.1185V38.4502Z" fill="white"/>
</svg>
