<svg xmlns="http://www.w3.org/2000/svg" viewBox="0 0 129.46 126.14"><title>Ресурс 5_bottom_right</title><g id="Слой_2" data-name="Слой 2"><g id="Слой_1-2" data-name="Слой 1"><path d="M29.46,26.14c12.57.29,23.13.19,31.16,0,6.06-.14,10.4-.33,11.84-3C75.21,18,63.86,10.41,66.12,5c2.92-7,26.73-6.41,29.17.5,2,5.57-10.63,13.13-8.17,18,1.26,2.48,5.55,2.6,10,2.67,8.81.14,19.7.2,32.33,0v100h-100c-.11-4.29-.19-10.56,0-18.16.32-13.29,1.12-17-1.32-18.9-5.29-4-16.13,8.45-23.06,4.56C-1.53,89.93-1.58,73,4.29,69.81c6-3.31,16.14,9,22.07,5.18,2.87-1.83,3-6.31,3.1-9.85C29.67,54.8,29.77,41.66,29.46,26.14Z" fill="#fff"/></g></g></svg>