<svg xmlns="http://www.w3.org/2000/svg" viewBox="0 0 100.45 100.43"><title>Ресурс 4_bottom_left</title><g id="Слой_2" data-name="Слой 2"><g id="Слой_1-2" data-name="Слой 1"><path d="M100,.43C87.29,0,76.75.17,68.83.43c-5.39.18-9.51.66-10.71,3.19C55.72,8.7,68.18,15.9,66.29,21.37c-2.43,7-27.21,7.47-29.92.5C34.3,16.55,46,9.25,43.45,4,42.13,1.24,37.87.73,32.32.43A303.85,303.85,0,0,0,0,.43v100H100c-.1-4.21-.18-10.5,0-18.17.31-13.32,1.29-17.32-1.21-19.21-5.28-4-16.25,8.71-22.87,4.88-6.47-3.74-5.73-21.4.43-24.29,5.93-2.78,14.71,9.13,20.36,5.9,3-1.7,3.19-6.52,3.29-10.11C100.28,29.85,100.44,16.7,100,.43Z" fill="#fff"/></g></g></svg>