<svg xmlns="http://www.w3.org/2000/svg" viewBox="0 0 129.46 126.14"><title>Ресурс 2_top_left</title><g id="Слой_2" data-name="Слой 2"><g id="Слой_1-2" data-name="Слой 1"><path d="M100,100c-12.58-.29-23.13-.19-31.17,0-6,.14-10.39.33-11.83,3-2.76,5.1,8.6,12.73,6.33,18.17-2.91,7-26.72,6.41-29.16-.5-2-5.57,10.63-13.13,8.16-18-1.25-2.48-5.55-2.6-10-2.67-8.8-.14-19.69-.2-32.32,0V0H100c.11,4.29.18,10.56,0,18.17-.32,13.28-1.12,17,1.32,18.89,5.28,4,16.13-8.45,23.06-4.56,6.6,3.71,6.66,20.61.79,23.83-6,3.31-16.14-9-22.08-5.18-2.87,1.83-3,6.31-3.09,9.85C99.79,71.34,99.69,84.48,100,100Z" fill="#fff"/></g></g></svg>