<svg xmlns="http://www.w3.org/2000/svg" viewBox="0 0 100.45 100.43"><title>Ресурс 3_top_right</title><g id="Слой_2" data-name="Слой 2"><g id="Слой_1-2" data-name="Слой 1"><path d="M.45,100c12.72.4,23.25.26,31.17,0,5.39-.18,9.51-.66,10.71-3.19,2.4-5.08-10-12.28-8.16-17.75,2.42-7,27.2-7.47,29.91-.5,2.07,5.32-9.65,12.62-7.08,17.91,1.32,2.72,5.58,3.23,11.13,3.53a303.87,303.87,0,0,0,32.32,0V0H.45c.1,4.21.18,10.5,0,18.17C.14,31.48-.84,35.49,1.66,37.38c5.28,4,16.25-8.71,22.88-4.88,6.46,3.74,5.72,21.4-.44,24.29-5.92,2.78-14.71-9.13-20.36-5.9C.76,52.59.56,57.41.45,61,.17,70.58,0,83.73.45,100Z" fill="#fff"/></g></g></svg>