<svg width="210" height="282" viewBox="0 0 210 282" fill="none" xmlns="http://www.w3.org/2000/svg">
<path fill-rule="evenodd" clip-rule="evenodd" d="M206.733 215.159C208.774 212.438 209.983 208.583 209.983 203.707C209.983 189.648 200.157 172.527 187.987 165.498C185.304 163.948 181.071 162.814 176.195 161.869C173.777 161.491 169.808 155.18 169.808 151.93V96.3345C169.808 93.4622 166.671 88.0576 164.215 86.5837L14.7393 0.337734C14.1724 -0.0402057 13.7188 -0.0779997 13.4165 0.11097H13.3787L0.453125 6.30919L2.38062 18.5922L12.8496 53.4383V173.963C12.8496 176.836 16.0243 182.278 18.4809 183.714L64.8163 210.435L71.1279 224.834C69.9941 228.387 69.276 231.562 69.276 234.056C69.276 247.624 78.4978 263.989 90.1383 271.434L93.313 280.354L106.843 273.777C110.887 271.472 113.344 266.521 113.344 259.491C113.344 256.695 112.475 252.008 111.114 246.301L112.134 242.068L121.545 243.202L135.075 250.988L156.618 276.272L169.279 270.225L169.355 270.149H169.392V270.111C169.619 269.922 169.808 269.507 169.808 268.902V208.356L189.31 224.759L199.287 219.316C202.273 218.938 204.805 217.502 206.657 215.197L206.733 215.159Z" fill="#57B0DF"/>
<path fill-rule="evenodd" clip-rule="evenodd" d="M175.1 171.734C172.454 170.184 168.183 168.975 163.27 168.106C160.927 167.69 156.959 161.416 156.959 158.09V102.571C156.959 99.6607 153.859 94.2561 151.327 92.82L1.85191 6.5362C0.680292 5.85591 0 6.27164 0 7.63223V180.2C0 183.072 3.09911 188.477 5.59351 189.913L53.7431 217.691C56.5776 219.354 60.0169 225.931 59.2232 228.16C57.5603 232.885 56.4643 237.118 56.4643 240.254C56.4643 254.276 66.2907 271.359 78.4604 278.389C90.5923 285.418 100.494 279.711 100.494 265.652C100.494 261.91 98.907 254.654 96.6015 246.075C95.8834 243.618 96.6015 242.447 98.1889 243.391L155.069 276.197C156.203 276.839 156.959 276.423 156.959 275.101V209.452C156.959 207.6 158.281 207.6 160.133 209.452C166.407 215.726 171.887 220.677 175.1 222.567C187.307 229.597 197.171 223.927 197.171 209.868C197.171 195.846 187.307 178.764 175.1 171.734Z" fill="#A2D9F7"/>
</svg>
