<svg width="169" height="167" viewBox="0 0 169 167" fill="none" xmlns="http://www.w3.org/2000/svg">
<path fill-rule="evenodd" clip-rule="evenodd" d="M78.223 8.1386H67.2624C63.1873 5.60923 59.2527 0.831543 55.1776 0.831543C50.6341 0.831543 46.9338 4.53191 46.9338 9.0754C46.9338 13.6189 50.6341 17.3193 55.1776 17.3193C58.878 17.3193 63.1873 12.9631 67.075 10.4806L67.2624 10.3869H78.223V8.1386ZM90.7761 18.5371H101.737C105.812 16.0077 109.746 11.23 113.821 11.23C118.365 11.23 122.065 14.9304 122.065 19.4739C122.065 24.0642 118.365 27.7646 113.821 27.7646C110.121 27.7646 105.812 23.3616 101.924 20.8791L101.737 20.7854H90.7761V18.5371ZM90.7761 39.3809H110.964C116.726 36.0085 122.346 29.0761 128.061 29.0761C134.291 29.0761 139.302 34.088 139.302 40.3177C139.302 46.5006 134.291 51.5594 128.061 51.5594C122.768 51.5594 116.491 44.8612 110.964 41.6293H90.7761V39.3809ZM90.7761 63.6441H138.131V63.5973C142.441 60.7869 146.703 55.775 150.966 55.775C155.931 55.775 159.912 59.8032 159.912 64.7214C159.912 69.6396 155.931 73.6679 150.966 73.6679C146.984 73.6679 142.347 68.7028 138.131 65.9861V65.8924H90.7761V63.6441ZM90.7761 87.9541H151.106V87.8604L151.294 87.6731C154.76 85.3311 158.132 81.5839 161.598 81.5839C165.673 81.5839 168.999 84.9095 168.999 89.0314C168.999 93.1065 165.673 96.479 161.598 96.479C158.32 96.479 154.572 92.5444 151.106 90.2961V90.2024H90.7761V87.9541ZM90.7761 112.498H144.736C147.921 110.156 151.059 106.034 154.291 106.034C158.413 106.034 161.786 109.407 161.786 113.576C161.786 117.744 158.413 121.117 154.291 121.117C151.294 121.117 147.921 116.995 144.736 114.747H90.7761V112.498ZM90.7761 136.808H116.257C119.911 134.232 123.517 129.829 127.171 129.829C131.621 129.829 135.227 133.436 135.227 137.839C135.227 142.289 131.621 145.848 127.171 145.848C123.892 145.848 120.051 141.492 116.491 139.01H90.7761V136.808ZM90.7761 156.481H101.362L101.596 156.294C105.952 153.483 110.027 148.565 114.337 148.565C119.255 148.565 123.283 152.593 123.283 157.512C123.283 162.477 119.255 166.458 114.337 166.458C110.308 166.458 105.578 161.399 101.362 158.73H90.7761V156.481ZM78.223 126.363H52.7419C49.0884 123.834 45.4817 119.431 41.8282 119.431C37.3784 119.431 33.7717 122.991 33.7717 127.44C33.7717 131.843 37.3784 135.45 41.8282 135.45C45.107 135.45 48.9479 131.094 52.5077 128.611H78.223V126.363ZM78.223 28.9824H58.0349C52.2735 25.61 46.6527 18.6776 40.9382 18.6776C34.7085 18.6776 29.6966 23.6895 29.6966 29.9192C29.6966 36.1021 34.7085 41.1609 40.9382 41.1609C46.2312 41.1609 52.5077 34.4627 58.0349 31.1839H78.223V28.9824ZM78.223 53.2456H30.8676V53.1519C26.5583 50.3884 22.2959 45.3765 18.0334 45.3765C13.0684 45.3765 9.08698 49.3579 9.08698 54.3229C9.08698 59.2411 13.0684 63.2694 18.0334 63.2694C22.0148 63.2694 26.652 58.2575 30.8676 55.5876V55.4939H78.223V53.2456ZM78.223 77.5556H17.8929V77.4619L17.7056 77.2746C14.2394 74.8857 10.8669 71.1385 7.40073 71.1385C3.32565 71.1385 0 74.511 0 78.5861C0 82.708 3.32565 86.0337 7.40073 86.0337C10.6795 86.0337 14.4267 82.1459 17.8929 79.8976V79.7571H78.223V77.5556ZM78.223 102.1H24.2632C21.078 99.711 17.9398 95.6359 14.7078 95.6359C10.5859 95.6359 7.21337 99.0084 7.21337 103.177C7.21337 107.299 10.5859 110.672 14.7078 110.672C17.7056 110.672 21.078 106.596 24.2632 104.301H78.223V102.1ZM78.223 146.083H67.6371L67.4029 145.895C63.0468 143.085 58.9717 138.167 54.6624 138.167C49.7442 138.167 45.7159 142.195 45.7159 147.113C45.7159 152.031 49.7442 156.06 54.6624 156.06C58.6906 156.06 63.4215 151.001 67.6371 148.331H78.223V146.083Z" fill="url(#paint0_linear)"/>
<defs>
<linearGradient id="paint0_linear" x1="84.4995" y1="0.831543" x2="84.4995" y2="166.458" gradientUnits="userSpaceOnUse">
<stop stop-color="#FFEE58"/>
<stop offset="0.0001" stop-color="white"/>
<stop offset="0.259668" stop-color="white"/>
<stop offset="0.364641" stop-color="#FFEE58"/>
<stop offset="1" stop-color="#FFEE58"/>
</linearGradient>
</defs>
</svg>
