<svg width="169" height="167" viewBox="0 0 169 167" fill="none" xmlns="http://www.w3.org/2000/svg">
<path fill-rule="evenodd" clip-rule="evenodd" d="M78.223 8.17912H67.2624C63.1873 5.60292 59.2527 0.87207 55.1776 0.87207C50.6341 0.87207 46.9338 4.57244 46.9338 9.11593C46.9338 13.6594 50.6341 17.3598 55.1776 17.3598C58.878 17.3598 63.1873 13.0037 67.075 10.5211L67.2624 10.4274H78.223V8.17912ZM90.7761 18.5776H101.737C105.812 16.0483 109.746 11.2706 113.821 11.2706C118.365 11.2706 122.065 14.9709 122.065 19.5144C122.065 24.0579 118.365 27.7583 113.821 27.7583C110.121 27.7583 105.812 23.4022 101.924 20.9196L101.737 20.826H90.7761V18.5776ZM90.7761 39.4215H110.964C116.726 36.049 122.346 29.1166 128.061 29.1166C134.291 29.1166 139.302 34.1285 139.302 40.3583C139.302 46.5412 134.291 51.5999 128.061 51.5999C122.768 51.5999 116.491 44.9018 110.964 41.623H90.7761V39.4215ZM90.7761 63.6846H138.131V63.591C142.441 60.8274 146.703 55.8155 150.966 55.8155C155.931 55.8155 159.912 59.7969 159.912 64.762C159.912 69.6802 155.931 73.7084 150.966 73.7084C146.984 73.7084 142.347 68.6965 138.131 66.0266V65.933H90.7761V63.6846ZM90.7761 87.9946H151.106V87.901L151.294 87.7136C154.76 85.3716 158.132 81.6244 161.598 81.6244C165.673 81.6244 168.999 84.95 168.999 89.0251C168.999 93.147 165.673 96.4727 161.598 96.4727C158.32 96.4727 154.572 92.585 151.106 90.3366V90.243H90.7761V87.9946ZM90.7761 112.539H144.736C147.921 110.15 151.059 106.075 154.291 106.075C158.413 106.075 161.786 109.447 161.786 113.616C161.786 117.785 158.413 121.157 154.291 121.157C151.294 121.157 147.921 117.036 144.736 114.74H90.7761V112.539ZM90.7761 136.802H116.257C119.911 134.273 123.517 129.87 127.171 129.87C131.621 129.87 135.227 133.43 135.227 137.879C135.227 142.282 131.621 145.889 127.171 145.889C123.892 145.889 120.051 141.533 116.491 139.05H90.7761V136.802ZM90.7761 156.522H101.362L101.596 156.334C105.952 153.524 110.027 148.606 114.337 148.606C119.255 148.606 123.283 152.634 123.283 157.552C123.283 162.47 119.255 166.499 114.337 166.499C110.308 166.499 105.578 161.44 101.362 158.77H90.7761V156.522ZM78.223 126.404H52.7419C49.0884 123.874 45.4817 119.471 41.8282 119.471C37.3784 119.471 33.7717 123.031 33.7717 127.481C33.7717 131.884 37.3784 135.49 41.8282 135.49C45.107 135.49 48.9479 131.088 52.5077 128.652H78.223V126.404ZM78.223 28.9761H58.0349C52.2735 25.6036 46.6527 18.6713 40.9382 18.6713C34.7085 18.6713 29.6966 23.73 29.6966 29.9129C29.6966 36.1427 34.7085 41.1546 40.9382 41.1546C46.2312 41.1546 52.5077 34.4564 58.0349 31.2245H78.223V28.9761ZM78.223 53.2861H30.8676V53.1925C26.5583 50.382 22.2959 45.417 18.0334 45.417C13.0684 45.417 9.08698 49.3984 9.08698 54.3635C9.08698 59.2817 13.0684 63.3099 18.0334 63.3099C22.0148 63.3099 26.652 58.298 30.8676 55.6281V55.5345H78.223V53.2861ZM78.223 77.5961H17.8929V77.5025L17.7056 77.2683C14.2394 74.9263 10.8669 71.1791 7.40073 71.1791C3.32565 71.1791 0 74.5047 0 78.6266C0 82.7486 3.32565 86.0742 7.40073 86.0742C10.6795 86.0742 14.4267 82.1396 17.8929 79.8913V79.7976H78.223V77.5961ZM78.223 102.14H24.2632C21.078 99.7515 17.9398 95.6764 14.7078 95.6764C10.5859 95.6764 7.21337 99.0489 7.21337 103.171C7.21337 107.34 10.5859 110.712 14.7078 110.712C17.7056 110.712 21.078 106.59 24.2632 104.342H78.223V102.14ZM78.223 146.123H67.6371L67.4029 145.936C63.0468 143.125 58.9717 138.207 54.6624 138.207C49.7442 138.207 45.7159 142.189 45.7159 147.154C45.7159 152.072 49.7442 156.1 54.6624 156.1C58.6906 156.1 63.4215 151.041 67.6371 148.325H78.223V146.123Z" fill="url(#paint0_linear)"/>
<defs>
<linearGradient id="paint0_linear" x1="84.4995" y1="0.87207" x2="84.4995" y2="166.499" gradientUnits="userSpaceOnUse">
<stop stop-color="#FF1744"/>
<stop offset="0.0001" stop-color="white"/>
<stop offset="0.259668" stop-color="white"/>
<stop offset="0.364641" stop-color="#FF1744"/>
<stop offset="1" stop-color="#FF1744"/>
</linearGradient>
</defs>
</svg>
