<svg width="169" height="167" viewBox="0 0 169 167" fill="none" xmlns="http://www.w3.org/2000/svg">
<path fill-rule="evenodd" clip-rule="evenodd" d="M78.223 7.80901H67.2624C63.1873 5.27964 59.2527 0.501953 55.1776 0.501953C50.6341 0.501953 46.9338 4.20232 46.9338 8.74581C46.9338 13.3361 50.6341 17.0365 55.1776 17.0365C58.878 17.0365 63.1873 12.6335 67.075 10.151L67.2624 10.0573H78.223V7.80901ZM90.7761 18.2543H101.737C105.812 15.6781 109.746 10.9005 113.821 10.9005C118.365 10.9005 122.065 14.6008 122.065 19.1912C122.065 23.7346 118.365 27.435 113.821 27.435C110.121 27.435 105.812 23.0789 101.924 20.5964L101.737 20.4558H90.7761V18.2543ZM90.7761 39.0513H110.964C116.726 35.6789 122.346 28.7465 128.061 28.7465C134.291 28.7465 139.302 33.7584 139.302 39.9882C139.302 46.2179 134.291 51.2298 128.061 51.2298C122.768 51.2298 116.491 44.5316 110.964 41.2997H90.7761V39.0513ZM90.7761 63.3614H138.131V63.2677C142.441 60.4573 146.703 55.4454 150.966 55.4454C155.931 55.4454 159.912 59.4736 159.912 64.3918C159.912 69.3569 155.931 73.3383 150.966 73.3383C146.984 73.3383 142.347 68.3733 138.131 65.6565V65.5628H90.7761V63.3614ZM90.7761 87.6245H151.106V87.5308L151.294 87.3435C154.76 85.0015 158.132 81.2543 161.598 81.2543C165.673 81.2543 168.999 84.5799 168.999 88.7019C168.999 92.8238 165.673 96.1494 161.598 96.1494C158.32 96.1494 154.572 92.2149 151.106 89.9665V89.8729H90.7761V87.6245ZM90.7761 112.169H144.736C147.921 109.827 151.059 105.705 154.291 105.705C158.413 105.705 161.786 109.077 161.786 113.246C161.786 117.415 158.413 120.787 154.291 120.787C151.294 120.787 147.921 116.665 144.736 114.417H90.7761V112.169ZM90.7761 136.479H116.257C119.911 133.949 123.517 129.5 127.171 129.5C131.621 129.5 135.227 133.106 135.227 137.509C135.227 141.959 131.621 145.519 127.171 145.519C123.892 145.519 120.051 141.163 116.491 138.68H90.7761V136.479ZM90.7761 156.152H101.362L101.596 155.964C105.952 153.201 110.027 148.282 114.337 148.282C119.255 148.282 123.283 152.264 123.283 157.182C123.283 162.147 119.255 166.129 114.337 166.129C110.308 166.129 105.578 161.07 101.362 158.4H90.7761V156.152ZM78.223 126.033H52.7419C49.0884 123.504 45.4817 119.101 41.8282 119.101C37.3784 119.101 33.7717 122.708 33.7717 127.111C33.7717 131.561 37.3784 135.12 41.8282 135.12C45.107 135.12 48.9479 130.764 52.5077 128.282H78.223V126.033ZM78.223 28.6528H58.0349C52.2735 25.2804 46.6527 18.348 40.9382 18.348C34.7085 18.348 29.6966 23.3599 29.6966 29.5897C29.6966 35.7725 34.7085 40.8313 40.9382 40.8313C46.2312 40.8313 52.5077 34.1331 58.0349 30.8543H78.223V28.6528ZM78.223 52.916H30.8676V52.8692C26.5583 50.0588 22.2959 45.0469 18.0334 45.0469C13.0684 45.0469 9.08698 49.0751 9.08698 53.9933C9.08698 58.9115 13.0684 62.9398 18.0334 62.9398C22.0148 62.9398 26.652 57.9747 30.8676 55.258V55.1643H78.223V52.916ZM78.223 77.226H17.8929V77.1323L17.7056 76.945C14.2394 74.603 10.8669 70.8558 7.40073 70.8558C3.32565 70.8558 0 74.1814 0 78.3034C0 82.3784 3.32565 85.7509 7.40073 85.7509C10.6795 85.7509 14.4267 81.8164 17.8929 79.568V79.4743H78.223V77.226ZM78.223 101.77H24.2632C21.078 99.4282 17.9398 95.3063 14.7078 95.3063C10.5859 95.3063 7.21337 98.6788 7.21337 102.848C7.21337 107.016 10.5859 110.389 14.7078 110.389C17.7056 110.389 21.078 106.267 24.2632 104.019H78.223V101.77ZM78.223 145.753H67.6371L67.4029 145.566C63.0468 142.755 58.9717 137.837 54.6624 137.837C49.7442 137.837 45.7159 141.865 45.7159 146.784C45.7159 151.749 49.7442 155.73 54.6624 155.73C58.6906 155.73 63.4215 150.671 67.6371 148.001H78.223V145.753Z" fill="url(#paint0_linear)"/>
<defs>
<linearGradient id="paint0_linear" x1="84.4995" y1="0.501953" x2="84.4995" y2="166.129" gradientUnits="userSpaceOnUse">
<stop stop-color="#4DD0E1"/>
<stop offset="0.0001" stop-color="white"/>
<stop offset="0.447514" stop-color="white"/>
<stop offset="0.81768" stop-color="#4DD0E1"/>
<stop offset="1" stop-color="#4DD0E1"/>
</linearGradient>
</defs>
</svg>
