<svg width="169" height="166" viewBox="0 0 169 166" fill="none" xmlns="http://www.w3.org/2000/svg">
<path fill-rule="evenodd" clip-rule="evenodd" d="M78.223 7.30705H67.2624C63.1873 4.73085 59.2527 0 55.1776 0C50.6341 0 46.9338 3.70037 46.9338 8.24386C46.9338 12.7873 50.6341 16.4877 55.1776 16.4877C58.878 16.4877 63.1873 12.1316 67.075 9.64906L67.2624 9.55538H78.223V7.30705ZM90.7761 17.7056H101.737C105.812 15.1762 109.746 10.3985 113.821 10.3985C118.365 10.3985 122.065 14.0989 122.065 18.6424C122.065 23.1858 118.365 26.8862 113.821 26.8862C110.121 26.8862 105.812 22.5301 101.924 20.0476L101.737 19.9539H90.7761V17.7056ZM90.7761 38.5494H110.964C116.726 35.1769 122.346 28.2446 128.061 28.2446C134.291 28.2446 139.302 33.2565 139.302 39.4862C139.302 45.6691 134.291 50.7278 128.061 50.7278C122.768 50.7278 116.491 44.0297 110.964 40.7509H90.7761V38.5494ZM90.7761 62.8126H138.131V62.7189C142.441 59.9553 146.703 54.9434 150.966 54.9434C155.931 54.9434 159.912 58.9248 159.912 63.8899C159.912 68.8081 155.931 72.8363 150.966 72.8363C146.984 72.8363 142.347 67.8245 138.131 65.1546V65.0609H90.7761V62.8126ZM90.7761 87.1226H151.106V87.0289L151.294 86.8415C154.76 84.4995 158.132 80.7055 161.598 80.7055C165.673 80.7055 168.999 84.078 168.999 88.1531C168.999 92.275 165.673 95.6006 161.598 95.6006C158.32 95.6006 154.572 91.7129 151.106 89.4646V89.3241H90.7761V87.1226ZM90.7761 111.667H144.736C147.921 109.278 151.059 105.203 154.291 105.203C158.413 105.203 161.786 108.575 161.786 112.744C161.786 116.866 158.413 120.285 154.291 120.285C151.294 120.285 147.921 116.163 144.736 113.868H90.7761V111.667ZM90.7761 135.93H116.257C119.911 133.401 123.517 128.998 127.171 128.998C131.621 128.998 135.227 132.557 135.227 137.007C135.227 141.41 131.621 145.017 127.171 145.017C123.892 145.017 120.051 140.661 116.491 138.178H90.7761V135.93ZM90.7761 155.65H101.362L101.596 155.462C105.952 152.652 110.027 147.734 114.337 147.734C119.255 147.734 123.283 151.762 123.283 156.68C123.283 161.598 119.255 165.627 114.337 165.627C110.308 165.627 105.578 160.568 101.362 157.898H90.7761V155.65ZM78.223 125.531H52.7419C49.0884 123.002 45.4817 118.552 41.8282 118.552C37.3784 118.552 33.7717 122.159 33.7717 126.609C33.7717 131.012 37.3784 134.618 41.8282 134.618C45.107 134.618 48.9479 130.215 52.5077 127.78H78.223V125.531ZM78.223 28.1041H58.0349C52.2735 24.7316 46.6527 17.7992 40.9382 17.7992C34.7085 17.7992 29.6966 22.858 29.6966 29.0409C29.6966 35.2706 34.7085 40.2825 40.9382 40.2825C46.2312 40.2825 52.5077 33.5843 58.0349 30.3524H78.223V28.1041ZM78.223 52.4141H30.8676V52.3204C26.5583 49.51 22.2959 44.5449 18.0334 44.5449C13.0684 44.5449 9.08698 48.5263 9.08698 53.4914C9.08698 58.4096 13.0684 62.391 18.0334 62.391C22.0148 62.391 26.652 57.426 30.8676 54.7561V54.6624H78.223V52.4141ZM78.223 76.7241H17.8929V76.6304L17.7056 76.3962C14.2394 74.0542 10.8669 70.307 7.40073 70.307C3.32565 70.307 0 73.6326 0 77.7546C0 81.8765 3.32565 85.2021 7.40073 85.2021C10.6795 85.2021 14.4267 81.2676 17.8929 79.0192V78.9256H78.223V76.7241ZM78.223 101.221H24.2632C21.078 98.8794 17.9398 94.7575 14.7078 94.7575C10.5859 94.7575 7.21337 98.1768 7.21337 102.299C7.21337 106.468 10.5859 109.84 14.7078 109.84C17.7056 109.84 21.078 105.718 24.2632 103.47H78.223V101.221ZM78.223 145.251H67.6371L67.4029 145.017C63.0468 142.253 58.9717 137.335 54.6624 137.335C49.7442 137.335 45.7159 141.317 45.7159 146.282C45.7159 151.2 49.7442 155.228 54.6624 155.228C58.6906 155.228 63.4215 150.122 67.6371 147.453H78.223V145.251Z" fill="white"/>
</svg>
