<svg width="169" height="167" viewBox="0 0 169 167" fill="none" xmlns="http://www.w3.org/2000/svg">
<path fill-rule="evenodd" clip-rule="evenodd" d="M78.223 8.34657H67.2624C63.1873 5.77036 59.2527 0.992676 55.1776 0.992676C50.6341 0.992676 46.9338 4.69304 46.9338 9.28337C46.9338 13.8269 50.6341 17.5272 55.1776 17.5272C58.878 17.5272 63.1873 13.1711 67.075 10.6886L67.2624 10.5481H78.223V8.34657ZM90.7761 18.7451H101.737C105.812 16.1689 109.746 11.438 113.821 11.438C118.365 11.438 122.065 15.1384 122.065 19.6819C122.065 24.2254 118.365 27.9257 113.821 27.9257C110.121 27.9257 105.812 23.5696 101.924 21.0871L101.737 20.9934H90.7761V18.7451ZM90.7761 39.5421H110.964C116.726 36.1696 122.346 29.2372 128.061 29.2372C134.291 29.2372 139.302 34.296 139.302 40.4789C139.302 46.7086 134.291 51.7205 128.061 51.7205C122.768 51.7205 116.491 45.0224 110.964 41.7904H90.7761V39.5421ZM90.7761 63.8521H138.131V63.7584C142.441 60.948 146.703 55.9829 150.966 55.9829C155.931 55.9829 159.912 59.9643 159.912 64.9294C159.912 69.8476 155.931 73.8759 150.966 73.8759C146.984 73.8759 142.347 68.864 138.131 66.1941V66.1004H90.7761V63.8521ZM90.7761 88.1621H151.106V88.0684L151.294 87.881C154.76 85.4922 158.132 81.745 161.598 81.745C165.673 81.745 168.999 85.0706 168.999 89.1926C168.999 93.3145 165.673 96.6401 161.598 96.6401C158.32 96.6401 154.572 92.7056 151.106 90.4572V90.3636H90.7761V88.1621ZM90.7761 112.706H144.736C147.921 110.317 151.059 106.242 154.291 106.242C158.413 106.242 161.786 109.615 161.786 113.737C161.786 117.906 158.413 121.278 154.291 121.278C151.294 121.278 147.921 117.156 144.736 114.908H90.7761V112.706ZM90.7761 136.969H116.257C119.911 134.44 123.517 130.037 127.171 130.037C131.621 130.037 135.227 133.597 135.227 138.047C135.227 142.45 131.621 146.056 127.171 146.056C123.892 146.056 120.051 141.653 116.491 139.218H90.7761V136.969ZM90.7761 156.689H101.362L101.596 156.502C105.952 153.691 110.027 148.773 114.337 148.773C119.255 148.773 123.283 152.755 123.283 157.72C123.283 162.638 119.255 166.666 114.337 166.666C110.308 166.666 105.578 161.607 101.362 158.891H90.7761V156.689ZM78.223 126.571H52.7419C49.0884 124.042 45.4817 119.592 41.8282 119.592C37.3784 119.592 33.7717 123.198 33.7717 127.601C33.7717 132.051 37.3784 135.658 41.8282 135.658C45.107 135.658 48.9479 131.255 52.5077 128.772H78.223V126.571ZM78.223 29.1436H58.0349C52.2735 25.7711 46.6527 18.8388 40.9382 18.8388C34.7085 18.8388 29.6966 23.8975 29.6966 30.0804C29.6966 36.3101 34.7085 41.322 40.9382 41.322C46.2312 41.322 52.5077 34.6239 58.0349 31.3919H78.223V29.1436ZM78.223 53.4536H30.8676V53.3599C26.5583 50.5495 22.2959 45.5376 18.0334 45.5376C13.0684 45.5376 9.08698 49.5658 9.08698 54.4841C9.08698 59.4491 13.0684 63.4305 18.0334 63.4305C22.0148 63.4305 26.652 58.4655 30.8676 55.7956V55.6551H78.223V53.4536ZM78.223 77.7167H17.8929V77.6699L17.7056 77.4357C14.2394 75.0937 10.8669 71.3465 7.40073 71.3465C3.32565 71.3465 0 74.6721 0 78.7941C0 82.916 3.32565 86.2416 7.40073 86.2416C10.6795 86.2416 14.4267 82.3071 17.8929 80.0587V79.9651H78.223V77.7167ZM78.223 102.261H24.2632C21.078 99.9189 17.9398 95.797 14.7078 95.797C10.5859 95.797 7.21337 99.1695 7.21337 103.338C7.21337 107.507 10.5859 110.88 14.7078 110.88C17.7056 110.88 21.078 106.758 24.2632 104.509H78.223V102.261ZM78.223 146.291H67.6371L67.4029 146.056C63.0468 143.293 58.9717 138.375 54.6624 138.375C49.7442 138.375 45.7159 142.356 45.7159 147.321C45.7159 152.239 49.7442 156.221 54.6624 156.221C58.6906 156.221 63.4215 151.162 67.6371 148.492H78.223V146.291Z" fill="#4058B8"/>
</svg>
