<svg width="828" height="719" viewBox="0 0 828 719" fill="none" xmlns="http://www.w3.org/2000/svg">
<path d="M-122.687 199.147C-110.916 199.147 -101.373 189.604 -101.373 177.833C-101.373 166.062 -110.916 156.52 -122.687 156.52C-134.458 156.52 -144 166.062 -144 177.833C-144 189.604 -134.458 199.147 -122.687 199.147Z" fill="url(#paint0_linear)" fill-opacity="0.15"/>
<path d="M-122.687 250.798C-110.916 250.798 -101.373 241.256 -101.373 229.485C-101.373 217.714 -110.916 208.172 -122.687 208.172C-134.458 208.172 -144 217.714 -144 229.485C-144 241.256 -134.458 250.798 -122.687 250.798Z" fill="url(#paint1_linear)" fill-opacity="0.15"/>
<path d="M-122.687 303.158C-110.916 303.158 -101.373 293.616 -101.373 281.845C-101.373 270.074 -110.916 260.532 -122.687 260.532C-134.458 260.532 -144 270.074 -144 281.845C-144 293.616 -134.458 303.158 -122.687 303.158Z" fill="url(#paint2_linear)" fill-opacity="0.15"/>
<path d="M-122.687 354.841C-110.916 354.841 -101.373 345.298 -101.373 333.527C-101.373 321.756 -110.916 312.214 -122.687 312.214C-134.458 312.214 -144 321.756 -144 333.527C-144 345.298 -134.458 354.841 -122.687 354.841Z" fill="url(#paint3_linear)" fill-opacity="0.15"/>
<path d="M-122.687 406.67C-110.916 406.67 -101.373 397.128 -101.373 385.357C-101.373 373.586 -110.916 364.044 -122.687 364.044C-134.458 364.044 -144 373.586 -144 385.357C-144 397.128 -134.458 406.67 -122.687 406.67Z" fill="url(#paint4_linear)" fill-opacity="0.15"/>
<path d="M-122.687 459.089C-110.916 459.089 -101.373 449.547 -101.373 437.776C-101.373 426.005 -110.916 416.462 -122.687 416.462C-134.458 416.462 -144 426.005 -144 437.776C-144 449.547 -134.458 459.089 -122.687 459.089Z" fill="url(#paint5_linear)" fill-opacity="0.15"/>
<path d="M-122.687 510.683C-110.916 510.683 -101.373 501.141 -101.373 489.37C-101.373 477.599 -110.916 468.057 -122.687 468.057C-134.458 468.057 -144 477.599 -144 489.37C-144 501.141 -134.458 510.683 -122.687 510.683Z" fill="url(#paint6_linear)" fill-opacity="0.15"/>
<path d="M-122.687 562.513C-110.916 562.513 -101.373 552.971 -101.373 541.2C-101.373 529.429 -110.916 519.886 -122.687 519.886C-134.458 519.886 -144 529.429 -144 541.2C-144 552.971 -134.458 562.513 -122.687 562.513Z" fill="url(#paint7_linear)" fill-opacity="0.15"/>
<path d="M-122.687 614.843C-110.916 614.843 -101.373 605.301 -101.373 593.53C-101.373 581.759 -110.916 572.217 -122.687 572.217C-134.458 572.217 -144 581.759 -144 593.53C-144 605.301 -134.458 614.843 -122.687 614.843Z" fill="url(#paint8_linear)" fill-opacity="0.15"/>
<path d="M-122.687 666.526C-110.916 666.526 -101.373 656.983 -101.373 645.212C-101.373 633.441 -110.916 623.899 -122.687 623.899C-134.458 623.899 -144 633.441 -144 645.212C-144 656.983 -134.458 666.526 -122.687 666.526Z" fill="url(#paint9_linear)" fill-opacity="0.15"/>
<path d="M-122.687 718.002C-110.916 718.002 -101.373 708.46 -101.373 696.689C-101.373 684.918 -110.916 675.375 -122.687 675.375C-134.458 675.375 -144 684.918 -144 696.689C-144 708.46 -134.458 718.002 -122.687 718.002Z" fill="url(#paint10_linear)" fill-opacity="0.15"/>
<path d="M-45.6635 303.248C-33.8924 303.248 -24.3502 293.705 -24.3502 281.934C-24.3502 270.163 -33.8924 260.621 -45.6635 260.621C-57.4345 260.621 -66.9768 270.163 -66.9768 281.934C-66.9768 293.705 -57.4345 303.248 -45.6635 303.248Z" fill="url(#paint11_linear)" fill-opacity="0.15"/>
<path d="M-45.6704 354.903C-33.8994 354.903 -24.3571 345.361 -24.3571 333.59C-24.3571 321.819 -33.8994 312.277 -45.6704 312.277C-57.4415 312.277 -66.9838 321.819 -66.9838 333.59C-66.9838 345.361 -57.4415 354.903 -45.6704 354.903Z" fill="url(#paint12_linear)" fill-opacity="0.15"/>
<path d="M-45.6704 407.263C-33.8994 407.263 -24.3571 397.721 -24.3571 385.95C-24.3571 374.179 -33.8994 364.636 -45.6704 364.636C-57.4415 364.636 -66.9838 374.179 -66.9838 385.95C-66.9838 397.721 -57.4415 407.263 -45.6704 407.263Z" fill="url(#paint13_linear)" fill-opacity="0.15"/>
<path d="M-45.6704 458.887C-33.8994 458.887 -24.3571 449.344 -24.3571 437.573C-24.3571 425.802 -33.8994 416.26 -45.6704 416.26C-57.4415 416.26 -66.9838 425.802 -66.9838 437.573C-66.9838 449.344 -57.4415 458.887 -45.6704 458.887Z" fill="url(#paint14_linear)" fill-opacity="0.15"/>
<path d="M-45.6704 510.775C-33.8994 510.775 -24.3571 501.233 -24.3571 489.462C-24.3571 477.691 -33.8994 468.149 -45.6704 468.149C-57.4415 468.149 -66.9838 477.691 -66.9838 489.462C-66.9838 501.233 -57.4415 510.775 -45.6704 510.775Z" fill="url(#paint15_linear)" fill-opacity="0.15"/>
<path d="M31.4425 303.336C43.2136 303.336 52.7558 293.794 52.7558 282.023C52.7558 270.252 43.2136 260.709 31.4425 260.709C19.6715 260.709 10.1292 270.252 10.1292 282.023C10.1292 293.794 19.6715 303.336 31.4425 303.336Z" fill="url(#paint16_linear)" fill-opacity="0.15"/>
<path d="M31.4409 354.901C43.2119 354.901 52.7542 345.359 52.7542 333.588C52.7542 321.817 43.2119 312.275 31.4409 312.275C19.6699 312.275 10.1276 321.817 10.1276 333.588C10.1276 345.359 19.6699 354.901 31.4409 354.901Z" fill="url(#paint17_linear)" fill-opacity="0.15"/>
<path d="M31.4409 406.731C43.2119 406.731 52.7542 397.189 52.7542 385.418C52.7542 373.647 43.2119 364.104 31.4409 364.104C19.6699 364.104 10.1276 373.647 10.1276 385.418C10.1276 397.189 19.6699 406.731 31.4409 406.731Z" fill="url(#paint18_linear)" fill-opacity="0.15"/>
<path d="M31.4409 459.091C43.2119 459.091 52.7542 449.548 52.7542 437.777C52.7542 426.006 43.2119 416.464 31.4409 416.464C19.6699 416.464 10.1276 426.006 10.1276 437.777C10.1276 449.548 19.6699 459.091 31.4409 459.091Z" fill="url(#paint19_linear)" fill-opacity="0.15"/>
<path d="M31.4409 510.803C43.2119 510.803 52.7542 501.26 52.7542 489.489C52.7542 477.718 43.2119 468.176 31.4409 468.176C19.6699 468.176 10.1276 477.718 10.1276 489.489C10.1276 501.26 19.6699 510.803 31.4409 510.803Z" fill="url(#paint20_linear)" fill-opacity="0.15"/>
<path d="M31.4409 562.22C43.2119 562.22 52.7542 552.678 52.7542 540.907C52.7542 529.136 43.2119 519.594 31.4409 519.594C19.6699 519.594 10.1276 529.136 10.1276 540.907C10.1276 552.678 19.6699 562.22 31.4409 562.22Z" fill="url(#paint21_linear)" fill-opacity="0.15"/>
<path d="M108.552 250.888C120.323 250.888 129.866 241.346 129.866 229.575C129.866 217.804 120.323 208.261 108.552 208.261C96.7813 208.261 87.239 217.804 87.239 229.575C87.239 241.346 96.7813 250.888 108.552 250.888Z" fill="url(#paint22_linear)" fill-opacity="0.15"/>
<path d="M108.545 302.484C120.316 302.484 129.858 292.941 129.858 281.17C129.858 269.399 120.316 259.857 108.545 259.857C96.7741 259.857 87.2318 269.399 87.2318 281.17C87.2318 292.941 96.7741 302.484 108.545 302.484Z" fill="url(#paint23_linear)" fill-opacity="0.15"/>
<path d="M108.545 354.843C120.316 354.843 129.858 345.301 129.858 333.53C129.858 321.759 120.316 312.217 108.545 312.217C96.7741 312.217 87.2318 321.759 87.2318 333.53C87.2318 345.301 96.7741 354.843 108.545 354.843Z" fill="url(#paint24_linear)" fill-opacity="0.15"/>
<path d="M108.545 406.526C120.316 406.526 129.858 396.983 129.858 385.212C129.858 373.441 120.316 363.899 108.545 363.899C96.7741 363.899 87.2318 373.441 87.2318 385.212C87.2318 396.983 96.7741 406.526 108.545 406.526Z" fill="url(#paint25_linear)" fill-opacity="0.15"/>
<path d="M108.545 458.414C120.316 458.414 129.858 448.872 129.858 437.101C129.858 425.33 120.316 415.788 108.545 415.788C96.7741 415.788 87.2318 425.33 87.2318 437.101C87.2318 448.872 96.7741 458.414 108.545 458.414Z" fill="url(#paint26_linear)" fill-opacity="0.15"/>
<path d="M108.545 510.774C120.316 510.774 129.858 501.232 129.858 489.461C129.858 477.69 120.316 468.148 108.545 468.148C96.7741 468.148 87.2318 477.69 87.2318 489.461C87.2318 501.232 96.7741 510.774 108.545 510.774Z" fill="url(#paint27_linear)" fill-opacity="0.15"/>
<path d="M108.545 562.427C120.316 562.427 129.858 552.885 129.858 541.114C129.858 529.343 120.316 519.801 108.545 519.801C96.7741 519.801 87.2318 529.343 87.2318 541.114C87.2318 552.885 96.7741 562.427 108.545 562.427Z" fill="url(#paint28_linear)" fill-opacity="0.15"/>
<path d="M108.545 614.198C120.316 614.198 129.858 604.656 129.858 592.885C129.858 581.114 120.316 571.571 108.545 571.571C96.7741 571.571 87.2318 581.114 87.2318 592.885C87.2318 604.656 96.7741 614.198 108.545 614.198Z" fill="url(#paint29_linear)" fill-opacity="0.15"/>
<path d="M108.545 666.528C120.316 666.528 129.858 656.986 129.858 645.215C129.858 633.444 120.316 623.902 108.545 623.902C96.7741 623.902 87.2318 633.444 87.2318 645.215C87.2318 656.986 96.7741 666.528 108.545 666.528Z" fill="url(#paint30_linear)" fill-opacity="0.15"/>
<path d="M108.545 718.211C120.316 718.211 129.858 708.669 129.858 696.898C129.858 685.126 120.316 675.584 108.545 675.584C96.7741 675.584 87.2318 685.126 87.2318 696.898C87.2318 708.669 96.7741 718.211 108.545 718.211Z" fill="url(#paint31_linear)" fill-opacity="0.15"/>
<path d="M185.944 95.4282C197.715 95.4282 207.257 85.8859 207.257 74.1149C207.257 62.3438 197.715 52.8015 185.944 52.8015C174.173 52.8015 164.63 62.3438 164.63 74.1149C164.63 85.8859 174.173 95.4282 185.944 95.4282Z" fill="url(#paint32_linear)" fill-opacity="0.15"/>
<path d="M185.943 147.757C197.714 147.757 207.257 138.215 207.257 126.444C207.257 114.673 197.714 105.131 185.943 105.131C174.172 105.131 164.63 114.673 164.63 126.444C164.63 138.215 174.172 147.757 185.943 147.757Z" fill="url(#paint33_linear)" fill-opacity="0.15"/>
<path d="M185.943 199.469C197.714 199.469 207.257 189.927 207.257 178.156C207.257 166.385 197.714 156.843 185.943 156.843C174.172 156.843 164.63 166.385 164.63 178.156C164.63 189.927 174.172 199.469 185.943 199.469Z" fill="url(#paint34_linear)" fill-opacity="0.15"/>
<path d="M185.943 251.24C197.714 251.24 207.257 241.698 207.257 229.927C207.257 218.156 197.714 208.613 185.943 208.613C174.172 208.613 164.63 218.156 164.63 229.927C164.63 241.698 174.172 251.24 185.943 251.24Z" fill="url(#paint35_linear)" fill-opacity="0.15"/>
<path d="M185.943 303.541C197.714 303.541 207.257 293.999 207.257 282.228C207.257 270.457 197.714 260.914 185.943 260.914C174.172 260.914 164.63 270.457 164.63 282.228C164.63 293.999 174.172 303.541 185.943 303.541Z" fill="url(#paint36_linear)" fill-opacity="0.15"/>
<path d="M185.943 355.223C197.714 355.223 207.257 345.681 207.257 333.91C207.257 322.139 197.714 312.597 185.943 312.597C174.172 312.597 164.63 322.139 164.63 333.91C164.63 345.681 174.172 355.223 185.943 355.223Z" fill="url(#paint37_linear)" fill-opacity="0.15"/>
<path d="M185.943 406.67C197.714 406.67 207.257 397.128 207.257 385.357C207.257 373.586 197.714 364.044 185.943 364.044C174.172 364.044 164.63 373.586 164.63 385.357C164.63 397.128 174.172 406.67 185.943 406.67Z" fill="url(#paint38_linear)" fill-opacity="0.15"/>
<path d="M263.342 43.4512C275.113 43.4512 284.655 33.9089 284.655 22.1379C284.655 10.3669 275.113 0.824564 263.342 0.824564C251.571 0.824564 242.028 10.3669 242.028 22.1379C242.028 33.9089 251.571 43.4512 263.342 43.4512Z" fill="url(#paint39_linear)" fill-opacity="0.15"/>
<path d="M263.342 95.3398C275.113 95.3398 284.655 85.7975 284.655 74.0265C284.655 62.2555 275.113 52.7132 263.342 52.7132C251.571 52.7132 242.028 62.2555 242.028 74.0265C242.028 85.7975 251.571 95.3398 263.342 95.3398Z" fill="url(#paint40_linear)" fill-opacity="0.15"/>
<path d="M263.342 147.7C275.113 147.7 284.655 138.157 284.655 126.386C284.655 114.615 275.113 105.073 263.342 105.073C251.571 105.073 242.028 114.615 242.028 126.386C242.028 138.157 251.571 147.7 263.342 147.7Z" fill="url(#paint41_linear)" fill-opacity="0.15"/>
<path d="M263.342 199.353C275.113 199.353 284.655 189.81 284.655 178.039C284.655 166.268 275.113 156.726 263.342 156.726C251.571 156.726 242.028 166.268 242.028 178.039C242.028 189.81 251.571 199.353 263.342 199.353Z" fill="url(#paint42_linear)" fill-opacity="0.15"/>
<path d="M263.342 251.124C275.113 251.124 284.655 241.581 284.655 229.81C284.655 218.039 275.113 208.497 263.342 208.497C251.571 208.497 242.028 218.039 242.028 229.81C242.028 241.581 251.571 251.124 263.342 251.124Z" fill="url(#paint43_linear)" fill-opacity="0.15"/>
<path d="M263.342 303.483C275.113 303.483 284.655 293.941 284.655 282.17C284.655 270.399 275.113 260.857 263.342 260.857C251.571 260.857 242.028 270.399 242.028 282.17C242.028 293.941 251.571 303.483 263.342 303.483Z" fill="url(#paint44_linear)" fill-opacity="0.15"/>
<path d="M263.342 355.136C275.113 355.136 284.655 345.594 284.655 333.823C284.655 322.052 275.113 312.51 263.342 312.51C251.571 312.51 242.028 322.052 242.028 333.823C242.028 345.594 251.571 355.136 263.342 355.136Z" fill="url(#paint45_linear)" fill-opacity="0.15"/>
<path d="M263.342 406.613C275.113 406.613 284.655 397.07 284.655 385.299C284.655 373.528 275.113 363.986 263.342 363.986C251.571 363.986 242.028 373.528 242.028 385.299C242.028 397.07 251.571 406.613 263.342 406.613Z" fill="url(#paint46_linear)" fill-opacity="0.15"/>
<path d="M340.814 42.6267C352.585 42.6267 362.127 33.0844 362.127 21.3133C362.127 9.5423 352.585 0 340.814 0C329.043 0 319.5 9.5423 319.5 21.3133C319.5 33.0844 329.043 42.6267 340.814 42.6267Z" fill="url(#paint47_linear)" fill-opacity="0.15"/>
<path d="M340.814 95.0453C352.585 95.0453 362.127 85.503 362.127 73.732C362.127 61.961 352.585 52.4187 340.814 52.4187C329.043 52.4187 319.5 61.961 319.5 73.732C319.5 85.503 329.043 95.0453 340.814 95.0453Z" fill="url(#paint48_linear)" fill-opacity="0.15"/>
<path d="M340.814 146.639C352.585 146.639 362.127 137.097 362.127 125.326C362.127 113.555 352.585 104.013 340.814 104.013C329.043 104.013 319.5 113.555 319.5 125.326C319.5 137.097 329.043 146.639 340.814 146.639Z" fill="url(#paint49_linear)" fill-opacity="0.15"/>
<path d="M340.814 198.558C352.585 198.558 362.127 189.015 362.127 177.244C362.127 165.473 352.585 155.931 340.814 155.931C329.043 155.931 319.5 165.473 319.5 177.244C319.5 189.015 329.043 198.558 340.814 198.558Z" fill="url(#paint50_linear)" fill-opacity="0.15"/>
<path d="M340.814 250.888C352.585 250.888 362.127 241.346 362.127 229.575C362.127 217.804 352.585 208.261 340.814 208.261C329.043 208.261 319.5 217.804 319.5 229.575C319.5 241.346 329.043 250.888 340.814 250.888Z" fill="url(#paint51_linear)" fill-opacity="0.15"/>
<path d="M340.814 302.57C352.585 302.57 362.127 293.028 362.127 281.257C362.127 269.486 352.585 259.944 340.814 259.944C329.043 259.944 319.5 269.486 319.5 281.257C319.5 293.028 329.043 302.57 340.814 302.57Z" fill="url(#paint52_linear)" fill-opacity="0.15"/>
<path d="M340.814 354.312C352.585 354.312 362.127 344.769 362.127 332.998C362.127 321.227 352.585 311.685 340.814 311.685C329.043 311.685 319.5 321.227 319.5 332.998C319.5 344.769 329.043 354.312 340.814 354.312Z" fill="url(#paint53_linear)" fill-opacity="0.15"/>
<path d="M340.814 406.672C352.585 406.672 362.127 397.129 362.127 385.358C362.127 373.587 352.585 364.045 340.814 364.045C329.043 364.045 319.5 373.587 319.5 385.358C319.5 397.129 329.043 406.672 340.814 406.672Z" fill="url(#paint54_linear)" fill-opacity="0.15"/>
<path d="M340.814 458.354C352.585 458.354 362.127 448.812 362.127 437.041C362.127 425.27 352.585 415.727 340.814 415.727C329.043 415.727 319.5 425.27 319.5 437.041C319.5 448.812 329.043 458.354 340.814 458.354Z" fill="url(#paint55_linear)" fill-opacity="0.15"/>
<path d="M340.814 509.801C352.585 509.801 362.127 500.259 362.127 488.488C362.127 476.717 352.585 467.174 340.814 467.174C329.043 467.174 319.5 476.717 319.5 488.488C319.5 500.259 329.043 509.801 340.814 509.801Z" fill="url(#paint56_linear)" fill-opacity="0.15"/>
<path d="M418.082 354.312C429.853 354.312 439.396 344.769 439.396 332.998C439.396 321.227 429.853 311.685 418.082 311.685C406.311 311.685 396.769 321.227 396.769 332.998C396.769 344.769 406.311 354.312 418.082 354.312Z" fill="url(#paint57_linear)" fill-opacity="0.15"/>
<path d="M418.08 406.674C429.851 406.674 439.393 397.131 439.393 385.36C439.393 373.589 429.851 364.047 418.08 364.047C406.309 364.047 396.767 373.589 396.767 385.36C396.767 397.131 406.309 406.674 418.08 406.674Z" fill="url(#paint58_linear)" fill-opacity="0.15"/>
<path d="M418.08 458.356C429.851 458.356 439.393 448.814 439.393 437.043C439.393 425.272 429.851 415.729 418.08 415.729C406.309 415.729 396.767 425.272 396.767 437.043C396.767 448.814 406.309 458.356 418.08 458.356Z" fill="url(#paint59_linear)" fill-opacity="0.15"/>
<path d="M418.08 510.127C429.851 510.127 439.393 500.585 439.393 488.814C439.393 477.042 429.851 467.5 418.08 467.5C406.309 467.5 396.767 477.042 396.767 488.814C396.767 500.585 406.309 510.127 418.08 510.127Z" fill="url(#paint60_linear)" fill-opacity="0.15"/>
<path d="M418.08 562.457C429.851 562.457 439.393 552.915 439.393 541.144C439.393 529.373 429.851 519.831 418.08 519.831C406.309 519.831 396.767 529.373 396.767 541.144C396.767 552.915 406.309 562.457 418.08 562.457Z" fill="url(#paint61_linear)" fill-opacity="0.15"/>
<path d="M418.08 614.14C429.851 614.14 439.393 604.597 439.393 592.826C439.393 581.055 429.851 571.513 418.08 571.513C406.309 571.513 396.767 581.055 396.767 592.826C396.767 604.597 406.309 614.14 418.08 614.14Z" fill="url(#paint62_linear)" fill-opacity="0.15"/>
<path d="M418.08 665.557C429.851 665.557 439.393 656.015 439.393 644.244C439.393 632.473 429.851 622.93 418.08 622.93C406.309 622.93 396.767 632.473 396.767 644.244C396.767 656.015 406.309 665.557 418.08 665.557Z" fill="url(#paint63_linear)" fill-opacity="0.15"/>
<path d="M495.405 199.029C507.176 199.029 516.718 189.486 516.718 177.715C516.718 165.944 507.176 156.402 495.405 156.402C483.634 156.402 474.091 165.944 474.091 177.715C474.091 189.486 483.634 199.029 495.405 199.029Z" fill="url(#paint64_linear)" fill-opacity="0.15"/>
<path d="M495.405 250.888C507.176 250.888 516.718 241.346 516.718 229.575C516.718 217.804 507.176 208.261 495.405 208.261C483.634 208.261 474.091 217.804 474.091 229.575C474.091 241.346 483.634 250.888 495.405 250.888Z" fill="url(#paint65_linear)" fill-opacity="0.15"/>
<path d="M495.405 303.248C507.176 303.248 516.718 293.705 516.718 281.934C516.718 270.163 507.176 260.621 495.405 260.621C483.634 260.621 474.091 270.163 474.091 281.934C474.091 293.705 483.634 303.248 495.405 303.248Z" fill="url(#paint66_linear)" fill-opacity="0.15"/>
<path d="M495.405 354.901C507.176 354.901 516.718 345.358 516.718 333.587C516.718 321.816 507.176 312.274 495.405 312.274C483.634 312.274 474.091 321.816 474.091 333.587C474.091 345.358 483.634 354.901 495.405 354.901Z" fill="url(#paint67_linear)" fill-opacity="0.15"/>
<path d="M495.405 406.672C507.176 406.672 516.718 397.129 516.718 385.358C516.718 373.587 507.176 364.045 495.405 364.045C483.634 364.045 474.091 373.587 474.091 385.358C474.091 397.129 483.634 406.672 495.405 406.672Z" fill="url(#paint68_linear)" fill-opacity="0.15"/>
<path d="M495.405 459.031C507.176 459.031 516.718 449.489 516.718 437.718C516.718 425.947 507.176 416.405 495.405 416.405C483.634 416.405 474.091 425.947 474.091 437.718C474.091 449.489 483.634 459.031 495.405 459.031Z" fill="url(#paint69_linear)" fill-opacity="0.15"/>
<path d="M495.405 510.714C507.176 510.714 516.718 501.171 516.718 489.4C516.718 477.629 507.176 468.087 495.405 468.087C483.634 468.087 474.091 477.629 474.091 489.4C474.091 501.171 483.634 510.714 495.405 510.714Z" fill="url(#paint70_linear)" fill-opacity="0.15"/>
<path d="M495.405 562.161C507.176 562.161 516.718 552.618 516.718 540.847C516.718 529.076 507.176 519.534 495.405 519.534C483.634 519.534 474.091 529.076 474.091 540.847C474.091 552.618 483.634 562.161 495.405 562.161Z" fill="url(#paint71_linear)" fill-opacity="0.15"/>
<path d="M572.877 147.405C584.648 147.405 594.19 137.863 594.19 126.092C594.19 114.321 584.648 104.778 572.877 104.778C561.106 104.778 551.564 114.321 551.564 126.092C551.564 137.863 561.106 147.405 572.877 147.405Z" fill="url(#paint72_linear)" fill-opacity="0.15"/>
<path d="M572.877 199.029C584.648 199.029 594.19 189.486 594.19 177.715C594.19 165.944 584.648 156.402 572.877 156.402C561.106 156.402 551.564 165.944 551.564 177.715C551.564 189.486 561.106 199.029 572.877 199.029Z" fill="url(#paint73_linear)" fill-opacity="0.15"/>
<path d="M572.877 250.888C584.648 250.888 594.19 241.346 594.19 229.575C594.19 217.804 584.648 208.261 572.877 208.261C561.106 208.261 551.564 217.804 551.564 229.575C551.564 241.346 561.106 250.888 572.877 250.888Z" fill="url(#paint74_linear)" fill-opacity="0.15"/>
<path d="M572.877 303.248C584.648 303.248 594.19 293.705 594.19 281.934C594.19 270.163 584.648 260.621 572.877 260.621C561.106 260.621 551.564 270.163 551.564 281.934C551.564 293.705 561.106 303.248 572.877 303.248Z" fill="url(#paint75_linear)" fill-opacity="0.15"/>
<path d="M572.877 354.901C584.648 354.901 594.19 345.358 594.19 333.587C594.19 321.816 584.648 312.274 572.877 312.274C561.106 312.274 551.564 321.816 551.564 333.587C551.564 345.358 561.106 354.901 572.877 354.901Z" fill="url(#paint76_linear)" fill-opacity="0.15"/>
<path d="M572.877 406.672C584.648 406.672 594.19 397.129 594.19 385.358C594.19 373.587 584.648 364.045 572.877 364.045C561.106 364.045 551.564 373.587 551.564 385.358C551.564 397.129 561.106 406.672 572.877 406.672Z" fill="url(#paint77_linear)" fill-opacity="0.15"/>
<path d="M650.202 250.741C661.973 250.741 671.515 241.198 671.515 229.427C671.515 217.656 661.973 208.114 650.202 208.114C638.431 208.114 628.888 217.656 628.888 229.427C628.888 241.198 638.431 250.741 650.202 250.741Z" fill="url(#paint78_linear)" fill-opacity="0.15"/>
<path d="M650.202 303.1C661.973 303.1 671.515 293.558 671.515 281.787C671.515 270.016 661.973 260.474 650.202 260.474C638.431 260.474 628.888 270.016 628.888 281.787C628.888 293.558 638.431 303.1 650.202 303.1Z" fill="url(#paint79_linear)" fill-opacity="0.15"/>
<path d="M650.202 354.753C661.973 354.753 671.515 345.211 671.515 333.44C671.515 321.669 661.973 312.127 650.202 312.127C638.431 312.127 628.888 321.669 628.888 333.44C628.888 345.211 638.431 354.753 650.202 354.753Z" fill="url(#paint80_linear)" fill-opacity="0.15"/>
<path d="M650.202 406.672C661.973 406.672 671.515 397.129 671.515 385.358C671.515 373.587 661.973 364.045 650.202 364.045C638.431 364.045 628.888 373.587 628.888 385.358C628.888 397.129 638.431 406.672 650.202 406.672Z" fill="url(#paint81_linear)" fill-opacity="0.15"/>
<path d="M650.202 459.031C661.973 459.031 671.515 449.489 671.515 437.718C671.515 425.947 661.973 416.405 650.202 416.405C638.431 416.405 628.888 425.947 628.888 437.718C628.888 449.489 638.431 459.031 650.202 459.031Z" fill="url(#paint82_linear)" fill-opacity="0.15"/>
<path d="M650.202 510.714C661.973 510.714 671.515 501.171 671.515 489.4C671.515 477.629 661.973 468.087 650.202 468.087C638.431 468.087 628.888 477.629 628.888 489.4C628.888 501.171 638.431 510.714 650.202 510.714Z" fill="url(#paint83_linear)" fill-opacity="0.15"/>
<path d="M650.202 562.455C661.973 562.455 671.515 552.913 671.515 541.142C671.515 529.371 661.973 519.829 650.202 519.829C638.431 519.829 628.888 529.371 628.888 541.142C628.888 552.913 638.431 562.455 650.202 562.455Z" fill="url(#paint84_linear)" fill-opacity="0.15"/>
<path d="M650.202 614.786C661.973 614.786 671.515 605.243 671.515 593.472C671.515 581.701 661.973 572.159 650.202 572.159C638.431 572.159 628.888 581.701 628.888 593.472C628.888 605.243 638.431 614.786 650.202 614.786Z" fill="url(#paint85_linear)" fill-opacity="0.15"/>
<path d="M650.202 666.468C661.973 666.468 671.515 656.926 671.515 645.155C671.515 633.384 661.973 623.841 650.202 623.841C638.431 623.841 628.888 633.384 628.888 645.155C628.888 656.926 638.431 666.468 650.202 666.468Z" fill="url(#paint86_linear)" fill-opacity="0.15"/>
<path d="M650.202 717.944C661.973 717.944 671.515 708.402 671.515 696.631C671.515 684.86 661.973 675.318 650.202 675.318C638.431 675.318 628.888 684.86 628.888 696.631C628.888 708.402 638.431 717.944 650.202 717.944Z" fill="url(#paint87_linear)" fill-opacity="0.15"/>
<path d="M727.608 354.753C739.379 354.753 748.921 345.211 748.921 333.44C748.921 321.669 739.379 312.127 727.608 312.127C715.837 312.127 706.294 321.669 706.294 333.44C706.294 345.211 715.837 354.753 727.608 354.753Z" fill="url(#paint88_linear)" fill-opacity="0.15"/>
<path d="M727.608 406.672C739.379 406.672 748.921 397.129 748.921 385.358C748.921 373.587 739.379 364.045 727.608 364.045C715.837 364.045 706.294 373.587 706.294 385.358C706.294 397.129 715.837 406.672 727.608 406.672Z" fill="url(#paint89_linear)" fill-opacity="0.15"/>
<path d="M727.608 459.031C739.379 459.031 748.921 449.489 748.921 437.718C748.921 425.947 739.379 416.405 727.608 416.405C715.837 416.405 706.294 425.947 706.294 437.718C706.294 449.489 715.837 459.031 727.608 459.031Z" fill="url(#paint90_linear)" fill-opacity="0.15"/>
<path d="M727.608 510.714C739.379 510.714 748.921 501.171 748.921 489.4C748.921 477.629 739.379 468.087 727.608 468.087C715.837 468.087 706.294 477.629 706.294 489.4C706.294 501.171 715.837 510.714 727.608 510.714Z" fill="url(#paint91_linear)" fill-opacity="0.15"/>
<path d="M727.608 562.455C739.379 562.455 748.921 552.913 748.921 541.142C748.921 529.371 739.379 519.829 727.608 519.829C715.837 519.829 706.294 529.371 706.294 541.142C706.294 552.913 715.837 562.455 727.608 562.455Z" fill="url(#paint92_linear)" fill-opacity="0.15"/>
<path d="M727.608 614.786C739.379 614.786 748.921 605.243 748.921 593.472C748.921 581.701 739.379 572.159 727.608 572.159C715.837 572.159 706.294 581.701 706.294 593.472C706.294 605.243 715.837 614.786 727.608 614.786Z" fill="url(#paint93_linear)" fill-opacity="0.15"/>
<path d="M727.608 666.468C739.379 666.468 748.921 656.926 748.921 645.155C748.921 633.384 739.379 623.841 727.608 623.841C715.837 623.841 706.294 633.384 706.294 645.155C706.294 656.926 715.837 666.468 727.608 666.468Z" fill="url(#paint94_linear)" fill-opacity="0.15"/>
<path d="M727.608 717.944C739.379 717.944 748.921 708.402 748.921 696.631C748.921 684.86 739.379 675.318 727.608 675.318C715.837 675.318 706.294 684.86 706.294 696.631C706.294 708.402 715.837 717.944 727.608 717.944Z" fill="url(#paint95_linear)" fill-opacity="0.15"/>
<path d="M804.933 354.753C816.704 354.753 826.246 345.211 826.246 333.44C826.246 321.669 816.704 312.127 804.933 312.127C793.162 312.127 783.619 321.669 783.619 333.44C783.619 345.211 793.162 354.753 804.933 354.753Z" fill="url(#paint96_linear)" fill-opacity="0.15"/>
<path d="M804.933 406.672C816.704 406.672 826.246 397.129 826.246 385.358C826.246 373.587 816.704 364.045 804.933 364.045C793.162 364.045 783.619 373.587 783.619 385.358C783.619 397.129 793.162 406.672 804.933 406.672Z" fill="url(#paint97_linear)" fill-opacity="0.15"/>
<path d="M804.933 459.031C816.704 459.031 826.246 449.489 826.246 437.718C826.246 425.947 816.704 416.405 804.933 416.405C793.162 416.405 783.619 425.947 783.619 437.718C783.619 449.489 793.162 459.031 804.933 459.031Z" fill="url(#paint98_linear)" fill-opacity="0.15"/>
<path d="M804.933 510.714C816.704 510.714 826.246 501.171 826.246 489.4C826.246 477.629 816.704 468.087 804.933 468.087C793.162 468.087 783.619 477.629 783.619 489.4C783.619 501.171 793.162 510.714 804.933 510.714Z" fill="url(#paint99_linear)" fill-opacity="0.15"/>
<path d="M804.933 562.455C816.704 562.455 826.246 552.913 826.246 541.142C826.246 529.371 816.704 519.829 804.933 519.829C793.162 519.829 783.619 529.371 783.619 541.142C783.619 552.913 793.162 562.455 804.933 562.455Z" fill="url(#paint100_linear)" fill-opacity="0.15"/>
<path d="M804.933 614.786C816.704 614.786 826.246 605.243 826.246 593.472C826.246 581.701 816.704 572.159 804.933 572.159C793.162 572.159 783.619 581.701 783.619 593.472C783.619 605.243 793.162 614.786 804.933 614.786Z" fill="url(#paint101_linear)" fill-opacity="0.15"/>
<path d="M804.933 666.468C816.704 666.468 826.246 656.926 826.246 645.155C826.246 633.384 816.704 623.841 804.933 623.841C793.162 623.841 783.619 633.384 783.619 645.155C783.619 656.926 793.162 666.468 804.933 666.468Z" fill="url(#paint102_linear)" fill-opacity="0.15"/>
<path d="M882.11 43.4512C893.881 43.4512 903.424 33.9089 903.424 22.1379C903.424 10.3669 893.881 0.824564 882.11 0.824564C870.339 0.824564 860.797 10.3669 860.797 22.1379C860.797 33.9089 870.339 43.4512 882.11 43.4512Z" fill="url(#paint103_linear)" fill-opacity="0.15"/>
<path d="M882.11 95.0453C893.881 95.0453 903.424 85.503 903.424 73.732C903.424 61.961 893.881 52.4187 882.11 52.4187C870.339 52.4187 860.797 61.961 860.797 73.732C860.797 85.503 870.339 95.0453 882.11 95.0453Z" fill="url(#paint104_linear)" fill-opacity="0.15"/>
<path d="M882.11 147.493C893.881 147.493 903.424 137.951 903.424 126.18C903.424 114.409 893.881 104.867 882.11 104.867C870.339 104.867 860.797 114.409 860.797 126.18C860.797 137.951 870.339 147.493 882.11 147.493Z" fill="url(#paint105_linear)" fill-opacity="0.15"/>
<path d="M882.11 199.058C893.881 199.058 903.424 189.516 903.424 177.745C903.424 165.974 893.881 156.432 882.11 156.432C870.339 156.432 860.797 165.974 860.797 177.745C860.797 189.516 870.339 199.058 882.11 199.058Z" fill="url(#paint106_linear)" fill-opacity="0.15"/>
<path d="M882.11 250.976C893.881 250.976 903.424 241.434 903.424 229.663C903.424 217.892 893.881 208.35 882.11 208.35C870.339 208.35 860.797 217.892 860.797 229.663C860.797 241.434 870.339 250.976 882.11 250.976Z" fill="url(#paint107_linear)" fill-opacity="0.15"/>
<path d="M882.11 303.336C893.881 303.336 903.424 293.794 903.424 282.023C903.424 270.252 893.881 260.709 882.11 260.709C870.339 260.709 860.797 270.252 860.797 282.023C860.797 293.794 870.339 303.336 882.11 303.336Z" fill="url(#paint108_linear)" fill-opacity="0.15"/>
<path d="M882.11 354.989C893.881 354.989 903.424 345.447 903.424 333.676C903.424 321.905 893.881 312.362 882.11 312.362C870.339 312.362 860.797 321.905 860.797 333.676C860.797 345.447 870.339 354.989 882.11 354.989Z" fill="url(#paint109_linear)" fill-opacity="0.15"/>
<path d="M882.11 406.73C893.881 406.73 903.424 397.188 903.424 385.417C903.424 373.646 893.881 364.104 882.11 364.104C870.339 364.104 860.797 373.646 860.797 385.417C860.797 397.188 870.339 406.73 882.11 406.73Z" fill="url(#paint110_linear)" fill-opacity="0.15"/>
<path d="M882.11 459.09C893.881 459.09 903.424 449.548 903.424 437.777C903.424 426.006 893.881 416.464 882.11 416.464C870.339 416.464 860.797 426.006 860.797 437.777C860.797 449.548 870.339 459.09 882.11 459.09Z" fill="url(#paint111_linear)" fill-opacity="0.15"/>
<path d="M882.11 510.773C893.881 510.773 903.424 501.23 903.424 489.459C903.424 477.688 893.881 468.146 882.11 468.146C870.339 468.146 860.797 477.688 860.797 489.459C860.797 501.23 870.339 510.773 882.11 510.773Z" fill="url(#paint112_linear)" fill-opacity="0.15"/>
<path d="M959.583 199.147C971.354 199.147 980.896 189.604 980.896 177.833C980.896 166.062 971.354 156.52 959.583 156.52C947.812 156.52 938.269 166.062 938.269 177.833C938.269 189.604 947.812 199.147 959.583 199.147Z" fill="url(#paint113_linear)" fill-opacity="0.15"/>
<path d="M959.583 250.741C971.354 250.741 980.896 241.198 980.896 229.427C980.896 217.656 971.354 208.114 959.583 208.114C947.812 208.114 938.269 217.656 938.269 229.427C938.269 241.198 947.812 250.741 959.583 250.741Z" fill="url(#paint114_linear)" fill-opacity="0.15"/>
<path d="M959.583 303.1C971.354 303.1 980.896 293.558 980.896 281.787C980.896 270.016 971.354 260.474 959.583 260.474C947.812 260.474 938.269 270.016 938.269 281.787C938.269 293.558 947.812 303.1 959.583 303.1Z" fill="url(#paint115_linear)" fill-opacity="0.15"/>
<path d="M959.583 354.753C971.354 354.753 980.896 345.211 980.896 333.44C980.896 321.669 971.354 312.127 959.583 312.127C947.812 312.127 938.269 321.669 938.269 333.44C938.269 345.211 947.812 354.753 959.583 354.753Z" fill="url(#paint116_linear)" fill-opacity="0.15"/>
<path d="M959.583 406.672C971.354 406.672 980.896 397.129 980.896 385.358C980.896 373.587 971.354 364.045 959.583 364.045C947.812 364.045 938.269 373.587 938.269 385.358C938.269 397.129 947.812 406.672 959.583 406.672Z" fill="url(#paint117_linear)" fill-opacity="0.15"/>
<path d="M959.583 459.031C971.354 459.031 980.896 449.489 980.896 437.718C980.896 425.947 971.354 416.405 959.583 416.405C947.812 416.405 938.269 425.947 938.269 437.718C938.269 449.489 947.812 459.031 959.583 459.031Z" fill="url(#paint118_linear)" fill-opacity="0.15"/>
<path d="M1036.69 250.741C1048.46 250.741 1058 241.198 1058 229.427C1058 217.656 1048.46 208.114 1036.69 208.114C1024.92 208.114 1015.37 217.656 1015.37 229.427C1015.37 241.198 1024.92 250.741 1036.69 250.741Z" fill="url(#paint119_linear)" fill-opacity="0.15"/>
<path d="M1036.69 303.1C1048.46 303.1 1058 293.558 1058 281.787C1058 270.016 1048.46 260.474 1036.69 260.474C1024.92 260.474 1015.37 270.016 1015.37 281.787C1015.37 293.558 1024.92 303.1 1036.69 303.1Z" fill="url(#paint120_linear)" fill-opacity="0.15"/>
<path d="M1036.69 354.753C1048.46 354.753 1058 345.211 1058 333.44C1058 321.669 1048.46 312.127 1036.69 312.127C1024.92 312.127 1015.37 321.669 1015.37 333.44C1015.37 345.211 1024.92 354.753 1036.69 354.753Z" fill="url(#paint121_linear)" fill-opacity="0.15"/>
<path d="M1036.69 406.672C1048.46 406.672 1058 397.129 1058 385.358C1058 373.587 1048.46 364.045 1036.69 364.045C1024.92 364.045 1015.37 373.587 1015.37 385.358C1015.37 397.129 1024.92 406.672 1036.69 406.672Z" fill="url(#paint122_linear)" fill-opacity="0.15"/>
<path d="M1036.69 459.031C1048.46 459.031 1058 449.489 1058 437.718C1058 425.947 1048.46 416.405 1036.69 416.405C1024.92 416.405 1015.37 425.947 1015.37 437.718C1015.37 449.489 1024.92 459.031 1036.69 459.031Z" fill="url(#paint123_linear)" fill-opacity="0.15"/>
<defs>
<linearGradient id="paint0_linear" x1="156.521" y1="670.091" x2="412.171" y2="-71.001" gradientUnits="userSpaceOnUse">
<stop stop-color="#28B1FF"/>
<stop offset="1" stop-color="#3C76FE"/>
</linearGradient>
<linearGradient id="paint1_linear" x1="156.521" y1="670.091" x2="412.171" y2="-71.001" gradientUnits="userSpaceOnUse">
<stop stop-color="#28B1FF"/>
<stop offset="1" stop-color="#3C76FE"/>
</linearGradient>
<linearGradient id="paint2_linear" x1="156.521" y1="670.091" x2="412.171" y2="-71.001" gradientUnits="userSpaceOnUse">
<stop stop-color="#28B1FF"/>
<stop offset="1" stop-color="#3C76FE"/>
</linearGradient>
<linearGradient id="paint3_linear" x1="156.521" y1="670.091" x2="412.171" y2="-71.001" gradientUnits="userSpaceOnUse">
<stop stop-color="#28B1FF"/>
<stop offset="1" stop-color="#3C76FE"/>
</linearGradient>
<linearGradient id="paint4_linear" x1="156.521" y1="670.091" x2="412.171" y2="-71.001" gradientUnits="userSpaceOnUse">
<stop stop-color="#28B1FF"/>
<stop offset="1" stop-color="#3C76FE"/>
</linearGradient>
<linearGradient id="paint5_linear" x1="156.521" y1="670.091" x2="412.171" y2="-71.001" gradientUnits="userSpaceOnUse">
<stop stop-color="#28B1FF"/>
<stop offset="1" stop-color="#3C76FE"/>
</linearGradient>
<linearGradient id="paint6_linear" x1="156.521" y1="670.091" x2="412.171" y2="-71.001" gradientUnits="userSpaceOnUse">
<stop stop-color="#28B1FF"/>
<stop offset="1" stop-color="#3C76FE"/>
</linearGradient>
<linearGradient id="paint7_linear" x1="156.521" y1="670.091" x2="412.171" y2="-71.001" gradientUnits="userSpaceOnUse">
<stop stop-color="#28B1FF"/>
<stop offset="1" stop-color="#3C76FE"/>
</linearGradient>
<linearGradient id="paint8_linear" x1="156.521" y1="670.091" x2="412.171" y2="-71.001" gradientUnits="userSpaceOnUse">
<stop stop-color="#28B1FF"/>
<stop offset="1" stop-color="#3C76FE"/>
</linearGradient>
<linearGradient id="paint9_linear" x1="156.521" y1="670.091" x2="412.171" y2="-71.001" gradientUnits="userSpaceOnUse">
<stop stop-color="#28B1FF"/>
<stop offset="1" stop-color="#3C76FE"/>
</linearGradient>
<linearGradient id="paint10_linear" x1="156.521" y1="670.091" x2="412.171" y2="-71.001" gradientUnits="userSpaceOnUse">
<stop stop-color="#28B1FF"/>
<stop offset="1" stop-color="#3C76FE"/>
</linearGradient>
<linearGradient id="paint11_linear" x1="156.521" y1="670.091" x2="412.171" y2="-71.001" gradientUnits="userSpaceOnUse">
<stop stop-color="#28B1FF"/>
<stop offset="1" stop-color="#3C76FE"/>
</linearGradient>
<linearGradient id="paint12_linear" x1="156.521" y1="670.091" x2="412.171" y2="-71.001" gradientUnits="userSpaceOnUse">
<stop stop-color="#28B1FF"/>
<stop offset="1" stop-color="#3C76FE"/>
</linearGradient>
<linearGradient id="paint13_linear" x1="156.521" y1="670.091" x2="412.171" y2="-71.001" gradientUnits="userSpaceOnUse">
<stop stop-color="#28B1FF"/>
<stop offset="1" stop-color="#3C76FE"/>
</linearGradient>
<linearGradient id="paint14_linear" x1="156.521" y1="670.091" x2="412.171" y2="-71.001" gradientUnits="userSpaceOnUse">
<stop stop-color="#28B1FF"/>
<stop offset="1" stop-color="#3C76FE"/>
</linearGradient>
<linearGradient id="paint15_linear" x1="156.521" y1="670.091" x2="412.171" y2="-71.001" gradientUnits="userSpaceOnUse">
<stop stop-color="#28B1FF"/>
<stop offset="1" stop-color="#3C76FE"/>
</linearGradient>
<linearGradient id="paint16_linear" x1="156.521" y1="670.091" x2="412.171" y2="-71.001" gradientUnits="userSpaceOnUse">
<stop stop-color="#28B1FF"/>
<stop offset="1" stop-color="#3C76FE"/>
</linearGradient>
<linearGradient id="paint17_linear" x1="156.521" y1="670.091" x2="412.171" y2="-71.001" gradientUnits="userSpaceOnUse">
<stop stop-color="#28B1FF"/>
<stop offset="1" stop-color="#3C76FE"/>
</linearGradient>
<linearGradient id="paint18_linear" x1="156.521" y1="670.091" x2="412.171" y2="-71.001" gradientUnits="userSpaceOnUse">
<stop stop-color="#28B1FF"/>
<stop offset="1" stop-color="#3C76FE"/>
</linearGradient>
<linearGradient id="paint19_linear" x1="156.521" y1="670.091" x2="412.171" y2="-71.001" gradientUnits="userSpaceOnUse">
<stop stop-color="#28B1FF"/>
<stop offset="1" stop-color="#3C76FE"/>
</linearGradient>
<linearGradient id="paint20_linear" x1="156.521" y1="670.091" x2="412.171" y2="-71.001" gradientUnits="userSpaceOnUse">
<stop stop-color="#28B1FF"/>
<stop offset="1" stop-color="#3C76FE"/>
</linearGradient>
<linearGradient id="paint21_linear" x1="156.521" y1="670.091" x2="412.171" y2="-71.001" gradientUnits="userSpaceOnUse">
<stop stop-color="#28B1FF"/>
<stop offset="1" stop-color="#3C76FE"/>
</linearGradient>
<linearGradient id="paint22_linear" x1="156.521" y1="670.091" x2="412.171" y2="-71.001" gradientUnits="userSpaceOnUse">
<stop stop-color="#28B1FF"/>
<stop offset="1" stop-color="#3C76FE"/>
</linearGradient>
<linearGradient id="paint23_linear" x1="156.521" y1="670.091" x2="412.171" y2="-71.001" gradientUnits="userSpaceOnUse">
<stop stop-color="#28B1FF"/>
<stop offset="1" stop-color="#3C76FE"/>
</linearGradient>
<linearGradient id="paint24_linear" x1="156.521" y1="670.091" x2="412.171" y2="-71.001" gradientUnits="userSpaceOnUse">
<stop stop-color="#28B1FF"/>
<stop offset="1" stop-color="#3C76FE"/>
</linearGradient>
<linearGradient id="paint25_linear" x1="156.521" y1="670.091" x2="412.171" y2="-71.001" gradientUnits="userSpaceOnUse">
<stop stop-color="#28B1FF"/>
<stop offset="1" stop-color="#3C76FE"/>
</linearGradient>
<linearGradient id="paint26_linear" x1="156.521" y1="670.091" x2="412.171" y2="-71.001" gradientUnits="userSpaceOnUse">
<stop stop-color="#28B1FF"/>
<stop offset="1" stop-color="#3C76FE"/>
</linearGradient>
<linearGradient id="paint27_linear" x1="156.521" y1="670.091" x2="412.171" y2="-71.001" gradientUnits="userSpaceOnUse">
<stop stop-color="#28B1FF"/>
<stop offset="1" stop-color="#3C76FE"/>
</linearGradient>
<linearGradient id="paint28_linear" x1="156.521" y1="670.091" x2="412.171" y2="-71.001" gradientUnits="userSpaceOnUse">
<stop stop-color="#28B1FF"/>
<stop offset="1" stop-color="#3C76FE"/>
</linearGradient>
<linearGradient id="paint29_linear" x1="156.521" y1="670.091" x2="412.171" y2="-71.001" gradientUnits="userSpaceOnUse">
<stop stop-color="#28B1FF"/>
<stop offset="1" stop-color="#3C76FE"/>
</linearGradient>
<linearGradient id="paint30_linear" x1="156.521" y1="670.091" x2="412.171" y2="-71.001" gradientUnits="userSpaceOnUse">
<stop stop-color="#28B1FF"/>
<stop offset="1" stop-color="#3C76FE"/>
</linearGradient>
<linearGradient id="paint31_linear" x1="156.521" y1="670.091" x2="412.171" y2="-71.001" gradientUnits="userSpaceOnUse">
<stop stop-color="#28B1FF"/>
<stop offset="1" stop-color="#3C76FE"/>
</linearGradient>
<linearGradient id="paint32_linear" x1="156.521" y1="670.091" x2="412.171" y2="-71.001" gradientUnits="userSpaceOnUse">
<stop stop-color="#28B1FF"/>
<stop offset="1" stop-color="#3C76FE"/>
</linearGradient>
<linearGradient id="paint33_linear" x1="156.521" y1="670.091" x2="412.171" y2="-71.001" gradientUnits="userSpaceOnUse">
<stop stop-color="#28B1FF"/>
<stop offset="1" stop-color="#3C76FE"/>
</linearGradient>
<linearGradient id="paint34_linear" x1="156.521" y1="670.091" x2="412.171" y2="-71.001" gradientUnits="userSpaceOnUse">
<stop stop-color="#28B1FF"/>
<stop offset="1" stop-color="#3C76FE"/>
</linearGradient>
<linearGradient id="paint35_linear" x1="156.521" y1="670.091" x2="412.171" y2="-71.001" gradientUnits="userSpaceOnUse">
<stop stop-color="#28B1FF"/>
<stop offset="1" stop-color="#3C76FE"/>
</linearGradient>
<linearGradient id="paint36_linear" x1="156.521" y1="670.091" x2="412.171" y2="-71.001" gradientUnits="userSpaceOnUse">
<stop stop-color="#28B1FF"/>
<stop offset="1" stop-color="#3C76FE"/>
</linearGradient>
<linearGradient id="paint37_linear" x1="156.521" y1="670.091" x2="412.171" y2="-71.001" gradientUnits="userSpaceOnUse">
<stop stop-color="#28B1FF"/>
<stop offset="1" stop-color="#3C76FE"/>
</linearGradient>
<linearGradient id="paint38_linear" x1="156.521" y1="670.091" x2="412.171" y2="-71.001" gradientUnits="userSpaceOnUse">
<stop stop-color="#28B1FF"/>
<stop offset="1" stop-color="#3C76FE"/>
</linearGradient>
<linearGradient id="paint39_linear" x1="156.521" y1="670.091" x2="412.171" y2="-71.001" gradientUnits="userSpaceOnUse">
<stop stop-color="#28B1FF"/>
<stop offset="1" stop-color="#3C76FE"/>
</linearGradient>
<linearGradient id="paint40_linear" x1="156.521" y1="670.091" x2="412.171" y2="-71.001" gradientUnits="userSpaceOnUse">
<stop stop-color="#28B1FF"/>
<stop offset="1" stop-color="#3C76FE"/>
</linearGradient>
<linearGradient id="paint41_linear" x1="156.521" y1="670.091" x2="412.171" y2="-71.001" gradientUnits="userSpaceOnUse">
<stop stop-color="#28B1FF"/>
<stop offset="1" stop-color="#3C76FE"/>
</linearGradient>
<linearGradient id="paint42_linear" x1="156.521" y1="670.091" x2="412.171" y2="-71.001" gradientUnits="userSpaceOnUse">
<stop stop-color="#28B1FF"/>
<stop offset="1" stop-color="#3C76FE"/>
</linearGradient>
<linearGradient id="paint43_linear" x1="156.521" y1="670.091" x2="412.171" y2="-71.001" gradientUnits="userSpaceOnUse">
<stop stop-color="#28B1FF"/>
<stop offset="1" stop-color="#3C76FE"/>
</linearGradient>
<linearGradient id="paint44_linear" x1="156.521" y1="670.091" x2="412.171" y2="-71.001" gradientUnits="userSpaceOnUse">
<stop stop-color="#28B1FF"/>
<stop offset="1" stop-color="#3C76FE"/>
</linearGradient>
<linearGradient id="paint45_linear" x1="156.521" y1="670.091" x2="412.171" y2="-71.001" gradientUnits="userSpaceOnUse">
<stop stop-color="#28B1FF"/>
<stop offset="1" stop-color="#3C76FE"/>
</linearGradient>
<linearGradient id="paint46_linear" x1="156.521" y1="670.091" x2="412.171" y2="-71.001" gradientUnits="userSpaceOnUse">
<stop stop-color="#28B1FF"/>
<stop offset="1" stop-color="#3C76FE"/>
</linearGradient>
<linearGradient id="paint47_linear" x1="156.521" y1="670.091" x2="412.171" y2="-71.001" gradientUnits="userSpaceOnUse">
<stop stop-color="#28B1FF"/>
<stop offset="1" stop-color="#3C76FE"/>
</linearGradient>
<linearGradient id="paint48_linear" x1="156.521" y1="670.091" x2="412.171" y2="-71.001" gradientUnits="userSpaceOnUse">
<stop stop-color="#28B1FF"/>
<stop offset="1" stop-color="#3C76FE"/>
</linearGradient>
<linearGradient id="paint49_linear" x1="156.521" y1="670.091" x2="412.171" y2="-71.001" gradientUnits="userSpaceOnUse">
<stop stop-color="#28B1FF"/>
<stop offset="1" stop-color="#3C76FE"/>
</linearGradient>
<linearGradient id="paint50_linear" x1="156.521" y1="670.091" x2="412.171" y2="-71.001" gradientUnits="userSpaceOnUse">
<stop stop-color="#28B1FF"/>
<stop offset="1" stop-color="#3C76FE"/>
</linearGradient>
<linearGradient id="paint51_linear" x1="156.521" y1="670.091" x2="412.171" y2="-71.001" gradientUnits="userSpaceOnUse">
<stop stop-color="#28B1FF"/>
<stop offset="1" stop-color="#3C76FE"/>
</linearGradient>
<linearGradient id="paint52_linear" x1="156.521" y1="670.091" x2="412.171" y2="-71.001" gradientUnits="userSpaceOnUse">
<stop stop-color="#28B1FF"/>
<stop offset="1" stop-color="#3C76FE"/>
</linearGradient>
<linearGradient id="paint53_linear" x1="156.521" y1="670.091" x2="412.171" y2="-71.001" gradientUnits="userSpaceOnUse">
<stop stop-color="#28B1FF"/>
<stop offset="1" stop-color="#3C76FE"/>
</linearGradient>
<linearGradient id="paint54_linear" x1="156.521" y1="670.091" x2="412.171" y2="-71.001" gradientUnits="userSpaceOnUse">
<stop stop-color="#28B1FF"/>
<stop offset="1" stop-color="#3C76FE"/>
</linearGradient>
<linearGradient id="paint55_linear" x1="156.521" y1="670.091" x2="412.171" y2="-71.001" gradientUnits="userSpaceOnUse">
<stop stop-color="#28B1FF"/>
<stop offset="1" stop-color="#3C76FE"/>
</linearGradient>
<linearGradient id="paint56_linear" x1="156.521" y1="670.091" x2="412.171" y2="-71.001" gradientUnits="userSpaceOnUse">
<stop stop-color="#28B1FF"/>
<stop offset="1" stop-color="#3C76FE"/>
</linearGradient>
<linearGradient id="paint57_linear" x1="156.521" y1="670.091" x2="412.171" y2="-71.001" gradientUnits="userSpaceOnUse">
<stop stop-color="#28B1FF"/>
<stop offset="1" stop-color="#3C76FE"/>
</linearGradient>
<linearGradient id="paint58_linear" x1="156.521" y1="670.091" x2="412.171" y2="-71.001" gradientUnits="userSpaceOnUse">
<stop stop-color="#28B1FF"/>
<stop offset="1" stop-color="#3C76FE"/>
</linearGradient>
<linearGradient id="paint59_linear" x1="156.521" y1="670.091" x2="412.171" y2="-71.001" gradientUnits="userSpaceOnUse">
<stop stop-color="#28B1FF"/>
<stop offset="1" stop-color="#3C76FE"/>
</linearGradient>
<linearGradient id="paint60_linear" x1="156.521" y1="670.091" x2="412.171" y2="-71.001" gradientUnits="userSpaceOnUse">
<stop stop-color="#28B1FF"/>
<stop offset="1" stop-color="#3C76FE"/>
</linearGradient>
<linearGradient id="paint61_linear" x1="156.521" y1="670.091" x2="412.171" y2="-71.001" gradientUnits="userSpaceOnUse">
<stop stop-color="#28B1FF"/>
<stop offset="1" stop-color="#3C76FE"/>
</linearGradient>
<linearGradient id="paint62_linear" x1="156.521" y1="670.091" x2="412.171" y2="-71.001" gradientUnits="userSpaceOnUse">
<stop stop-color="#28B1FF"/>
<stop offset="1" stop-color="#3C76FE"/>
</linearGradient>
<linearGradient id="paint63_linear" x1="156.521" y1="670.091" x2="412.171" y2="-71.001" gradientUnits="userSpaceOnUse">
<stop stop-color="#28B1FF"/>
<stop offset="1" stop-color="#3C76FE"/>
</linearGradient>
<linearGradient id="paint64_linear" x1="156.521" y1="670.091" x2="412.171" y2="-71.001" gradientUnits="userSpaceOnUse">
<stop stop-color="#28B1FF"/>
<stop offset="1" stop-color="#3C76FE"/>
</linearGradient>
<linearGradient id="paint65_linear" x1="156.521" y1="670.091" x2="412.171" y2="-71.001" gradientUnits="userSpaceOnUse">
<stop stop-color="#28B1FF"/>
<stop offset="1" stop-color="#3C76FE"/>
</linearGradient>
<linearGradient id="paint66_linear" x1="156.521" y1="670.091" x2="412.171" y2="-71.001" gradientUnits="userSpaceOnUse">
<stop stop-color="#28B1FF"/>
<stop offset="1" stop-color="#3C76FE"/>
</linearGradient>
<linearGradient id="paint67_linear" x1="156.521" y1="670.091" x2="412.171" y2="-71.001" gradientUnits="userSpaceOnUse">
<stop stop-color="#28B1FF"/>
<stop offset="1" stop-color="#3C76FE"/>
</linearGradient>
<linearGradient id="paint68_linear" x1="156.521" y1="670.091" x2="412.171" y2="-71.001" gradientUnits="userSpaceOnUse">
<stop stop-color="#28B1FF"/>
<stop offset="1" stop-color="#3C76FE"/>
</linearGradient>
<linearGradient id="paint69_linear" x1="156.521" y1="670.091" x2="412.171" y2="-71.001" gradientUnits="userSpaceOnUse">
<stop stop-color="#28B1FF"/>
<stop offset="1" stop-color="#3C76FE"/>
</linearGradient>
<linearGradient id="paint70_linear" x1="156.521" y1="670.091" x2="412.171" y2="-71.001" gradientUnits="userSpaceOnUse">
<stop stop-color="#28B1FF"/>
<stop offset="1" stop-color="#3C76FE"/>
</linearGradient>
<linearGradient id="paint71_linear" x1="156.521" y1="670.091" x2="412.171" y2="-71.001" gradientUnits="userSpaceOnUse">
<stop stop-color="#28B1FF"/>
<stop offset="1" stop-color="#3C76FE"/>
</linearGradient>
<linearGradient id="paint72_linear" x1="156.521" y1="670.091" x2="412.171" y2="-71.001" gradientUnits="userSpaceOnUse">
<stop stop-color="#28B1FF"/>
<stop offset="1" stop-color="#3C76FE"/>
</linearGradient>
<linearGradient id="paint73_linear" x1="156.521" y1="670.091" x2="412.171" y2="-71.001" gradientUnits="userSpaceOnUse">
<stop stop-color="#28B1FF"/>
<stop offset="1" stop-color="#3C76FE"/>
</linearGradient>
<linearGradient id="paint74_linear" x1="156.521" y1="670.091" x2="412.171" y2="-71.001" gradientUnits="userSpaceOnUse">
<stop stop-color="#28B1FF"/>
<stop offset="1" stop-color="#3C76FE"/>
</linearGradient>
<linearGradient id="paint75_linear" x1="156.521" y1="670.091" x2="412.171" y2="-71.001" gradientUnits="userSpaceOnUse">
<stop stop-color="#28B1FF"/>
<stop offset="1" stop-color="#3C76FE"/>
</linearGradient>
<linearGradient id="paint76_linear" x1="156.521" y1="670.091" x2="412.171" y2="-71.001" gradientUnits="userSpaceOnUse">
<stop stop-color="#28B1FF"/>
<stop offset="1" stop-color="#3C76FE"/>
</linearGradient>
<linearGradient id="paint77_linear" x1="156.521" y1="670.091" x2="412.171" y2="-71.001" gradientUnits="userSpaceOnUse">
<stop stop-color="#28B1FF"/>
<stop offset="1" stop-color="#3C76FE"/>
</linearGradient>
<linearGradient id="paint78_linear" x1="156.521" y1="670.091" x2="412.171" y2="-71.001" gradientUnits="userSpaceOnUse">
<stop stop-color="#28B1FF"/>
<stop offset="1" stop-color="#3C76FE"/>
</linearGradient>
<linearGradient id="paint79_linear" x1="156.521" y1="670.091" x2="412.171" y2="-71.001" gradientUnits="userSpaceOnUse">
<stop stop-color="#28B1FF"/>
<stop offset="1" stop-color="#3C76FE"/>
</linearGradient>
<linearGradient id="paint80_linear" x1="156.521" y1="670.091" x2="412.171" y2="-71.001" gradientUnits="userSpaceOnUse">
<stop stop-color="#28B1FF"/>
<stop offset="1" stop-color="#3C76FE"/>
</linearGradient>
<linearGradient id="paint81_linear" x1="156.521" y1="670.091" x2="412.171" y2="-71.001" gradientUnits="userSpaceOnUse">
<stop stop-color="#28B1FF"/>
<stop offset="1" stop-color="#3C76FE"/>
</linearGradient>
<linearGradient id="paint82_linear" x1="156.521" y1="670.091" x2="412.171" y2="-71.001" gradientUnits="userSpaceOnUse">
<stop stop-color="#28B1FF"/>
<stop offset="1" stop-color="#3C76FE"/>
</linearGradient>
<linearGradient id="paint83_linear" x1="156.521" y1="670.091" x2="412.171" y2="-71.001" gradientUnits="userSpaceOnUse">
<stop stop-color="#28B1FF"/>
<stop offset="1" stop-color="#3C76FE"/>
</linearGradient>
<linearGradient id="paint84_linear" x1="156.521" y1="670.091" x2="412.171" y2="-71.001" gradientUnits="userSpaceOnUse">
<stop stop-color="#28B1FF"/>
<stop offset="1" stop-color="#3C76FE"/>
</linearGradient>
<linearGradient id="paint85_linear" x1="156.521" y1="670.091" x2="412.171" y2="-71.001" gradientUnits="userSpaceOnUse">
<stop stop-color="#28B1FF"/>
<stop offset="1" stop-color="#3C76FE"/>
</linearGradient>
<linearGradient id="paint86_linear" x1="156.521" y1="670.091" x2="412.171" y2="-71.001" gradientUnits="userSpaceOnUse">
<stop stop-color="#28B1FF"/>
<stop offset="1" stop-color="#3C76FE"/>
</linearGradient>
<linearGradient id="paint87_linear" x1="156.521" y1="670.091" x2="412.171" y2="-71.001" gradientUnits="userSpaceOnUse">
<stop stop-color="#28B1FF"/>
<stop offset="1" stop-color="#3C76FE"/>
</linearGradient>
<linearGradient id="paint88_linear" x1="156.521" y1="670.091" x2="412.171" y2="-71.001" gradientUnits="userSpaceOnUse">
<stop stop-color="#28B1FF"/>
<stop offset="1" stop-color="#3C76FE"/>
</linearGradient>
<linearGradient id="paint89_linear" x1="156.521" y1="670.091" x2="412.171" y2="-71.001" gradientUnits="userSpaceOnUse">
<stop stop-color="#28B1FF"/>
<stop offset="1" stop-color="#3C76FE"/>
</linearGradient>
<linearGradient id="paint90_linear" x1="156.521" y1="670.091" x2="412.171" y2="-71.001" gradientUnits="userSpaceOnUse">
<stop stop-color="#28B1FF"/>
<stop offset="1" stop-color="#3C76FE"/>
</linearGradient>
<linearGradient id="paint91_linear" x1="156.521" y1="670.091" x2="412.171" y2="-71.001" gradientUnits="userSpaceOnUse">
<stop stop-color="#28B1FF"/>
<stop offset="1" stop-color="#3C76FE"/>
</linearGradient>
<linearGradient id="paint92_linear" x1="156.521" y1="670.091" x2="412.171" y2="-71.001" gradientUnits="userSpaceOnUse">
<stop stop-color="#28B1FF"/>
<stop offset="1" stop-color="#3C76FE"/>
</linearGradient>
<linearGradient id="paint93_linear" x1="156.521" y1="670.091" x2="412.171" y2="-71.001" gradientUnits="userSpaceOnUse">
<stop stop-color="#28B1FF"/>
<stop offset="1" stop-color="#3C76FE"/>
</linearGradient>
<linearGradient id="paint94_linear" x1="156.521" y1="670.091" x2="412.171" y2="-71.001" gradientUnits="userSpaceOnUse">
<stop stop-color="#28B1FF"/>
<stop offset="1" stop-color="#3C76FE"/>
</linearGradient>
<linearGradient id="paint95_linear" x1="156.521" y1="670.091" x2="412.171" y2="-71.001" gradientUnits="userSpaceOnUse">
<stop stop-color="#28B1FF"/>
<stop offset="1" stop-color="#3C76FE"/>
</linearGradient>
<linearGradient id="paint96_linear" x1="156.521" y1="670.091" x2="412.171" y2="-71.001" gradientUnits="userSpaceOnUse">
<stop stop-color="#28B1FF"/>
<stop offset="1" stop-color="#3C76FE"/>
</linearGradient>
<linearGradient id="paint97_linear" x1="156.521" y1="670.091" x2="412.171" y2="-71.001" gradientUnits="userSpaceOnUse">
<stop stop-color="#28B1FF"/>
<stop offset="1" stop-color="#3C76FE"/>
</linearGradient>
<linearGradient id="paint98_linear" x1="156.521" y1="670.091" x2="412.171" y2="-71.001" gradientUnits="userSpaceOnUse">
<stop stop-color="#28B1FF"/>
<stop offset="1" stop-color="#3C76FE"/>
</linearGradient>
<linearGradient id="paint99_linear" x1="156.521" y1="670.091" x2="412.171" y2="-71.001" gradientUnits="userSpaceOnUse">
<stop stop-color="#28B1FF"/>
<stop offset="1" stop-color="#3C76FE"/>
</linearGradient>
<linearGradient id="paint100_linear" x1="156.521" y1="670.091" x2="412.171" y2="-71.001" gradientUnits="userSpaceOnUse">
<stop stop-color="#28B1FF"/>
<stop offset="1" stop-color="#3C76FE"/>
</linearGradient>
<linearGradient id="paint101_linear" x1="156.521" y1="670.091" x2="412.171" y2="-71.001" gradientUnits="userSpaceOnUse">
<stop stop-color="#28B1FF"/>
<stop offset="1" stop-color="#3C76FE"/>
</linearGradient>
<linearGradient id="paint102_linear" x1="156.521" y1="670.091" x2="412.171" y2="-71.001" gradientUnits="userSpaceOnUse">
<stop stop-color="#28B1FF"/>
<stop offset="1" stop-color="#3C76FE"/>
</linearGradient>
<linearGradient id="paint103_linear" x1="156.521" y1="670.091" x2="412.171" y2="-71.001" gradientUnits="userSpaceOnUse">
<stop stop-color="#28B1FF"/>
<stop offset="1" stop-color="#3C76FE"/>
</linearGradient>
<linearGradient id="paint104_linear" x1="156.521" y1="670.091" x2="412.171" y2="-71.001" gradientUnits="userSpaceOnUse">
<stop stop-color="#28B1FF"/>
<stop offset="1" stop-color="#3C76FE"/>
</linearGradient>
<linearGradient id="paint105_linear" x1="156.521" y1="670.091" x2="412.171" y2="-71.001" gradientUnits="userSpaceOnUse">
<stop stop-color="#28B1FF"/>
<stop offset="1" stop-color="#3C76FE"/>
</linearGradient>
<linearGradient id="paint106_linear" x1="156.521" y1="670.091" x2="412.171" y2="-71.001" gradientUnits="userSpaceOnUse">
<stop stop-color="#28B1FF"/>
<stop offset="1" stop-color="#3C76FE"/>
</linearGradient>
<linearGradient id="paint107_linear" x1="156.521" y1="670.091" x2="412.171" y2="-71.001" gradientUnits="userSpaceOnUse">
<stop stop-color="#28B1FF"/>
<stop offset="1" stop-color="#3C76FE"/>
</linearGradient>
<linearGradient id="paint108_linear" x1="156.521" y1="670.091" x2="412.171" y2="-71.001" gradientUnits="userSpaceOnUse">
<stop stop-color="#28B1FF"/>
<stop offset="1" stop-color="#3C76FE"/>
</linearGradient>
<linearGradient id="paint109_linear" x1="156.521" y1="670.091" x2="412.171" y2="-71.001" gradientUnits="userSpaceOnUse">
<stop stop-color="#28B1FF"/>
<stop offset="1" stop-color="#3C76FE"/>
</linearGradient>
<linearGradient id="paint110_linear" x1="156.521" y1="670.091" x2="412.171" y2="-71.001" gradientUnits="userSpaceOnUse">
<stop stop-color="#28B1FF"/>
<stop offset="1" stop-color="#3C76FE"/>
</linearGradient>
<linearGradient id="paint111_linear" x1="156.521" y1="670.091" x2="412.171" y2="-71.001" gradientUnits="userSpaceOnUse">
<stop stop-color="#28B1FF"/>
<stop offset="1" stop-color="#3C76FE"/>
</linearGradient>
<linearGradient id="paint112_linear" x1="156.521" y1="670.091" x2="412.171" y2="-71.001" gradientUnits="userSpaceOnUse">
<stop stop-color="#28B1FF"/>
<stop offset="1" stop-color="#3C76FE"/>
</linearGradient>
<linearGradient id="paint113_linear" x1="156.521" y1="670.091" x2="412.171" y2="-71.001" gradientUnits="userSpaceOnUse">
<stop stop-color="#28B1FF"/>
<stop offset="1" stop-color="#3C76FE"/>
</linearGradient>
<linearGradient id="paint114_linear" x1="156.521" y1="670.091" x2="412.171" y2="-71.001" gradientUnits="userSpaceOnUse">
<stop stop-color="#28B1FF"/>
<stop offset="1" stop-color="#3C76FE"/>
</linearGradient>
<linearGradient id="paint115_linear" x1="156.521" y1="670.091" x2="412.171" y2="-71.001" gradientUnits="userSpaceOnUse">
<stop stop-color="#28B1FF"/>
<stop offset="1" stop-color="#3C76FE"/>
</linearGradient>
<linearGradient id="paint116_linear" x1="156.521" y1="670.091" x2="412.171" y2="-71.001" gradientUnits="userSpaceOnUse">
<stop stop-color="#28B1FF"/>
<stop offset="1" stop-color="#3C76FE"/>
</linearGradient>
<linearGradient id="paint117_linear" x1="156.521" y1="670.091" x2="412.171" y2="-71.001" gradientUnits="userSpaceOnUse">
<stop stop-color="#28B1FF"/>
<stop offset="1" stop-color="#3C76FE"/>
</linearGradient>
<linearGradient id="paint118_linear" x1="156.521" y1="670.091" x2="412.171" y2="-71.001" gradientUnits="userSpaceOnUse">
<stop stop-color="#28B1FF"/>
<stop offset="1" stop-color="#3C76FE"/>
</linearGradient>
<linearGradient id="paint119_linear" x1="156.521" y1="670.091" x2="412.171" y2="-71.001" gradientUnits="userSpaceOnUse">
<stop stop-color="#28B1FF"/>
<stop offset="1" stop-color="#3C76FE"/>
</linearGradient>
<linearGradient id="paint120_linear" x1="156.521" y1="670.091" x2="412.171" y2="-71.001" gradientUnits="userSpaceOnUse">
<stop stop-color="#28B1FF"/>
<stop offset="1" stop-color="#3C76FE"/>
</linearGradient>
<linearGradient id="paint121_linear" x1="156.521" y1="670.091" x2="412.171" y2="-71.001" gradientUnits="userSpaceOnUse">
<stop stop-color="#28B1FF"/>
<stop offset="1" stop-color="#3C76FE"/>
</linearGradient>
<linearGradient id="paint122_linear" x1="156.521" y1="670.091" x2="412.171" y2="-71.001" gradientUnits="userSpaceOnUse">
<stop stop-color="#28B1FF"/>
<stop offset="1" stop-color="#3C76FE"/>
</linearGradient>
<linearGradient id="paint123_linear" x1="156.521" y1="670.091" x2="412.171" y2="-71.001" gradientUnits="userSpaceOnUse">
<stop stop-color="#28B1FF"/>
<stop offset="1" stop-color="#3C76FE"/>
</linearGradient>
</defs>
</svg>
